<?xml version="1.0" encoding="UTF-8" standalone="no"?>
<!-- Generator: Adobe Illustrator 25.0.0, SVG Export Plug-In . SVG Version: 6.00 Build 0)  -->

<svg
   version="1.1"
   id="Calque_1"
   x="0px"
   y="0px"
   viewBox="0 0 500 500"
   style="enable-background:new 0 0 500 500;"
   xml:space="preserve"
   sodipodi:docname="2_Plan de travail 1.svgz"
   xmlns:inkscape="http://www.inkscape.org/namespaces/inkscape"
   xmlns:sodipodi="http://sodipodi.sourceforge.net/DTD/sodipodi-0.dtd"
   xmlns="http://www.w3.org/2000/svg"
   xmlns:svg="http://www.w3.org/2000/svg"><defs
   id="defs11" /><sodipodi:namedview
   id="namedview9"
   pagecolor="#ffffff"
   bordercolor="#000000"
   borderopacity="0.25"
   inkscape:showpageshadow="2"
   inkscape:pageopacity="0.0"
   inkscape:pagecheckerboard="0"
   inkscape:deskcolor="#d1d1d1" />
<g
   id="g6">
	<path
   style="fill:#333333;"
   d="M396.39,122.878c-19.208-7.295-37.341-6.072-55.191-1.833c1.061-1.134,2.246-2.108,3.242-3.326   c19.678-24.034,26.489-59.968,16.677-89.292c-0.179-0.538-0.495-0.905-0.765-1.332c-0.241-2.757-2.072-5.216-5.657-4.927   c-46.384,3.737-86.674,37.123-99.984,80.113c-10.443-31.156-33.656-60.165-58.157-78.366c-1.811-1.346-3.564-1.319-5.043-0.622   c-0.174,0.068-0.336,0.191-0.509,0.282c-0.353,0.22-0.689,0.438-0.992,0.738c-0.239,0.201-0.497,0.286-0.723,0.54   c-9.346,10.482-14.207,26.126-17.771,39.392c-0.593,2.207,0.07,3.972,1.253,5.266c0.682,0.904,1.574,1.694,2.934,2.11   c33.297,10.17,58.136,36.33,67.432,69.492c-37.017-6.17-68.545-29.543-108.6-24.564c-38.636,4.8-68.709,31.47-84.759,66.155   c-41.393,89.454,6.344,196.795,64.729,267.22c30.577,36.881,58.994,32.869,100.87,18.969c30.352-10.076,50.952-4.258,80.472,3.148   c16.372,4.108,34.764,8.393,51.723,5.716c40.662-6.418,66.9-55.851,81.536-89.624c21.552-49.732,38.188-100.806,36.599-155.614   C464.393,187.084,441.006,139.821,396.39,122.878z M350.352,34.74c7.476,26.211,1.064,59.166-18.264,78.902   c-17.84,18.215-45.296,24.356-70.071,27.934c0.098-0.509,0.251-0.978,0.206-1.58C258.438,88.594,299.281,41.256,350.352,34.74z    M184.538,62.198c2.341-8.398,5.422-17.341,10.235-24.557c22.534,18.269,43.391,47.366,50.803,76.987   C232.585,90.421,210.93,71.804,184.538,62.198z M374.458,449.997c-39.876,37.244-84.276-2.359-128.905-0.508   c-21.35,0.885-40.144,12.06-60.495,17.127c-36.402,9.062-57.853-17.233-75.964-44.68c-30.595-46.37-58.886-96.609-62.498-153.212   c-3.618-56.717,21.085-127.805,83.925-139.431c45.023-8.329,79.486,21.749,122.279,24.983c0.733,0.257,1.582,0.362,2.576,0.231   c12.289-0.17,24.314-2.953,36.231-6.586c5.713-1.481,11.277-3.368,16.722-5.49c25.358-8.742,50.512-17.856,76.881-10.656   c71.65,19.564,75.902,108.68,62.337,168.199C435.917,351.014,413.475,413.556,374.458,449.997z"
   id="path2" />
	<path
   style="fill:#1C1C1B;"
   d="M168.533,479.933c-19.034,0.001-36.651-7.484-54.796-29.37   C55.096,379.829,7.261,272.207,48.871,182.284c8.224-17.773,20.046-33.21,34.189-44.642c15.233-12.313,32.511-19.744,51.354-22.085   c25.11-3.119,47.207,4.905,68.576,12.667c12.479,4.533,25.366,9.214,38.744,11.631c-9.625-32.415-34.312-57.501-66.32-67.277   c-1.383-0.423-2.508-1.229-3.44-2.464c-1.53-1.668-2.042-3.812-1.42-6.128c3.917-14.583,8.807-29.498,17.99-39.798   c0.229-0.258,0.469-0.407,0.644-0.517c0.061-0.038,0.123-0.073,0.181-0.122c0.317-0.318,0.708-0.573,1.108-0.822l0.196-0.115   c0.157-0.096,0.315-0.187,0.479-0.25c1.946-0.92,4.1-0.663,6.002,0.751c25.895,19.235,47.222,47.479,57.529,76.033   c14.465-42.48,55.132-74.364,99.936-77.974c4.136-0.333,6.336,2.52,6.706,5.578c0.023,0.034,0.047,0.068,0.069,0.102   c0.233,0.34,0.497,0.727,0.675,1.259c9.896,29.578,3.125,65.844-16.852,90.242c-0.273,0.334-0.559,0.65-0.849,0.953   c20.06-4.294,36.335-3.454,52.379,2.638c21.148,8.032,38.923,23.441,51.402,44.563c11.29,19.108,17.882,42.542,18.561,65.985   c1.709,58.969-17.583,111.971-36.681,156.041c-24.173,55.779-51.093,85.289-82.298,90.215c-16.598,2.619-34.124-1.219-52.123-5.735   l-3.026-0.761c-27.783-6.991-47.857-12.046-76.887-2.407C198.56,475.529,183.129,479.933,168.533,479.933z M145.619,116.869   c-3.595,0-7.244,0.211-10.958,0.673c-36.16,4.493-66.768,28.397-83.975,65.583c-41.22,89.079,6.339,195.898,64.591,266.161   c31.249,37.693,61.068,31.509,99.786,18.659c29.581-9.819,49.893-4.708,78.005,2.366l3.024,0.761   c17.791,4.464,35.101,8.257,51.324,5.698c30.475-4.81,56.896-33.933,80.774-89.033c19.011-43.867,38.215-96.61,36.517-155.188   c-1.116-38.554-19.771-90.165-68.674-108.736c-16.54-6.282-33.381-6.835-54.604-1.794l-3.227,0.766l2.265-2.422   c0.433-0.462,0.885-0.9,1.338-1.336c0.667-0.644,1.297-1.251,1.86-1.94c19.559-23.888,26.189-59.389,16.503-88.341   c-0.09-0.269-0.239-0.488-0.429-0.765c-0.079-0.115-0.157-0.231-0.233-0.35l-0.129-0.205l-0.021-0.242   c-0.185-2.105-1.467-4.267-4.581-4.018c-45.001,3.626-85.756,36.282-99.108,79.412l-0.917,2.963l-0.986-2.941   C244,73.466,222.39,44.352,195.959,24.718c-1.32-0.981-2.671-1.157-4.02-0.521c-0.117,0.049-0.167,0.085-0.22,0.118   c-0.081,0.049-0.162,0.099-0.245,0.143c-0.253,0.16-0.53,0.339-0.758,0.565c-0.193,0.167-0.332,0.257-0.471,0.344   c-0.112,0.07-0.171,0.108-0.208,0.149c-8.907,9.99-13.699,24.642-17.552,38.987c-0.442,1.647-0.097,3.104,1.025,4.333   c0.738,0.971,1.51,1.529,2.488,1.828c33.165,10.129,58.624,36.365,68.103,70.179l0.425,1.515l-1.552-0.259   c-14.121-2.354-27.616-7.256-40.666-11.996C184.35,123.581,165.871,116.869,145.619,116.869z M170.914,469.432   c-28.945,0.001-47.413-23.848-62.654-46.944c-30.391-46.06-59.015-96.559-62.662-153.7c-3.91-61.294,23.943-129.229,84.741-140.478   c26.645-4.928,49.991,3.59,72.571,11.828c15.918,5.807,32.377,11.812,49.966,13.141l0.255,0.053   c0.646,0.227,1.337,0.287,2.114,0.184l0.117-0.009c10.5-0.146,21.588-2.163,35.953-6.542c5.302-1.375,10.735-3.159,16.65-5.465   l1.993-0.688c24.348-8.405,49.524-17.097,75.516-10c32.211,8.795,54.282,32.942,63.828,69.831   c7.404,28.609,7.12,64.896-0.78,99.556c-8.864,38.902-30.187,110.188-73.382,150.53l0,0c-26.146,24.424-54.874,16.135-82.654,8.119   c-15.353-4.43-31.226-9.018-46.892-8.358c-13.228,0.548-25.746,5.199-37.852,9.696c-7.275,2.703-14.797,5.498-22.442,7.401   C180.229,468.848,175.443,469.432,170.914,469.432z M146.548,128.823c-5.138,0-10.403,0.447-15.845,1.454   c-59.652,11.036-86.962,77.97-83.109,138.384c3.616,56.675,32.097,106.896,62.334,152.726   c17.249,26.14,38.684,53.275,74.888,44.259c7.537-1.876,15.006-4.651,22.229-7.335c12.252-4.552,24.92-9.258,38.465-9.819   c15.982-0.66,32.024,3.962,47.529,8.435c28.5,8.224,55.419,15.988,80.735-7.658c42.805-39.979,63.983-110.835,72.798-149.515   c11.969-52.513,12.458-146.783-61.626-167.011c-25.394-6.934-50.275,1.655-74.336,9.961l-1.956,0.675   c-5.952,2.321-11.459,4.128-16.797,5.512c-14.487,4.417-25.732,6.462-36.412,6.617c-1.006,0.125-1.964,0.043-2.846-0.243   c-17.817-1.369-34.368-7.407-50.376-13.247C183.737,135.271,166.061,128.823,146.548,128.823z M260.77,142.767l0.341-1.738   c0.077-0.355,0.14-0.635,0.115-0.958c-1.839-24.978,6.588-49.901,23.728-70.18c16.992-20.104,40.173-32.939,65.272-36.142   l0.853-0.108l0.236,0.826c7.93,27.803,0.317,60.649-18.512,79.876c-18.118,18.498-45.878,24.648-70.644,28.224L260.77,142.767z    M349.623,35.846c-50.568,6.926-90.062,54.385-86.403,104.077c0.013,0.164,0.014,0.319,0.007,0.466   c24.086-3.557,50.773-9.707,68.146-27.446C349.537,94.396,356.98,62.811,349.623,35.846z M248.499,122.19l-3.804-7.089   c-12.878-23.997-34.363-42.451-60.499-51.963l-0.87-0.317l0.249-0.892c1.912-6.859,5.066-16.896,10.366-24.843l0.609-0.914   l0.853,0.691c24.564,19.916,44.162,49.62,51.144,77.521L248.499,122.19z M185.751,61.58c23.617,8.806,43.441,24.818,56.619,45.584   c-8.175-24.83-25.767-50.243-47.366-68.042C190.436,46.339,187.568,55.172,185.751,61.58z"
   id="path4" />
</g>
</svg>
