<?xml version="1.0" standalone="no"?>
<!DOCTYPE svg PUBLIC "-//W3C//DTD SVG 1.0//EN" "http://www.w3.org/TR/2001/REC-SVG-20010904/DTD/svg10.dtd">
<svg xmlns="http://www.w3.org/2000/svg" xmlns:xlink="http://www.w3.org/1999/xlink" id="body_1" width="1024" height="768">

<g transform="matrix(1.536 0 0 1.536 128.00003 -0)">
	<g>
        <path d="M467.002 231.526C 465.928 237.17 464.989 242.844 463.759 248.454C 456.374 282.125 435.872 303.985 403.559 315.226C 402.478 315.60202 401.146 316.739 400.88098 317.76602C 393.072 348.07803 376.597 373.48303 356.034 396.46103C 350.411 402.74503 343.952 408.33902 337.51 413.81903C 321.933 427.07004 303.28802 432.93903 283.31702 434.13403C 262.32602 435.38904 241.25601 435.24704 220.23901 436.14804C 203.75302 436.85504 187.28502 438.08405 170.83301 439.38904C 166.664 439.72003 162.513 440.98505 158.492 442.26004C 154.848 443.41605 151.68001 443.02704 148.349 441.26904C 126.940994 429.97305 109.714005 413.88904 95.171 394.79205C 72.392 364.87906 58.405 330.84805 48.926 294.78006C 39.406 258.56006 34.781 221.62006 33.538 184.25906C 33.065 170.02606 32.514 155.67506 33.746998 141.53006C 37.28 100.97706 73.015 63.855057 113.243 57.841057C 146.334 52.89406 172.13199 72.62906 176.94499 106.48106C 178.43799 116.98006 178.20499 127.35106 174.963 137.49606C 168.233 158.55606 148.943 170.23007 127.037 166.63306C 124.685005 166.24706 122.334 165.85606 119.586 165.40205C 119.327995 172.59505 120.304 179.51605 123.229 185.70706C 128.213 196.26006 133.189 206.99207 139.698 216.61307C 153.349 236.79207 167.994 256.29807 182.29 276.16306C 182.63399 275.35007 183.193 274.26004 183.569 273.11005C 193.171 243.71304 213.676 226.27205 243.434 219.83005C 257.173 216.85605 271.271 215.54305 285.74402 213.39804C 286.532 209.29803 287.26 204.15105 288.52402 199.13904C 298.712 158.74904 329.73502 132.98804 371.74402 130.50903C 407.43002 128.40303 435.187 142.36003 454.06702 172.97203C 460.98102 184.18204 464.717 196.58603 466.18802 209.67303C 466.31003 210.75504 466.725 211.80403 467.00302 212.86903C 467.002 219.086 467.002 225.306 467.002 231.526zM230.207 417.192C 230.234 417.688 230.261 418.185 230.289 418.681C 247.07 417.928 263.861 417.36 280.628 416.374C 301.40198 415.152 319.432 407.65298 334.48798 392.87698C 348.73297 378.896 360.593 363.19897 370.14297 345.77C 376.93097 333.38098 383.17197 320.728 384.03198 306.16498C 384.26797 302.167 387.788 299.102 392.167 298.77597C 402.767 297.985 411.416 292.91898 419.8 286.98297C 449.74698 265.77798 454.399 219.53198 443.482 192.43597C 431.227 162.02097 402.508 144.98898 369.847 148.63797C 350.261 150.82697 333.32797 158.17197 320.654 173.74797C 309.759 187.13797 304.554 202.68797 303.719 219.82697C 303.206 230.34396 300.827 232.08696 290.268 232.62897C 278.028 233.25697 265.721 234.04997 253.63701 235.97997C 226.30101 240.34497 207.418 255.08096 199.51102 282.42395C 196.84802 291.63293 193.94402 300.77594 190.97401 309.89194C 189.37001 314.81494 185.53902 317.23492 181.04701 316.63293C 176.64502 316.04294 173.59502 312.96893 173.26201 307.99792C 172.73901 300.18292 170.35301 292.93793 166.16501 286.51093C 158.46701 274.69492 150.509 263.03192 142.23701 251.60992C 130.64001 235.59692 118.50902 219.94392 110.16101 201.86392C 102.91301 186.16492 98.95401 169.90591 102.93601 152.54692C 104.570015 145.42392 109.277016 142.94992 116.21801 145.08893C 120.92101 146.53893 125.66701 148.01692 130.50401 148.83192C 143.15701 150.96393 153.126 144.90593 157.348 132.81293C 159.96301 125.32393 160.473 117.606926 159.076 109.828926C 154.403 83.816925 140.06801 71.15593 114.035 76.43092C 81.791 82.96492 62.281002 104.177925 53.194004 135.23093C 49.569004 147.61792 51.018005 160.46593 51.264004 173.15793C 51.868004 204.27792 54.791004 235.16893 60.779003 265.72592C 67.243004 298.7159 77.11 330.55792 93.753006 359.98593C 107.935005 385.06393 125.953 406.65594 150.76501 422.00894C 153.58502 423.75394 156.15001 424.36295 159.48901 423.40894C 164.08101 422.09692 168.84601 421.03494 173.59702 420.69693C 192.454 419.352 211.335 418.332 230.207 417.192z" stroke="none" fill="#000000" fill-rule="nonzero" />
	</g>
</g>
</svg>