<?xml version="1.0" encoding="UTF-8" standalone="no"?>
<!-- Generator: Adobe Illustrator 25.0.0, SVG Export Plug-In . SVG Version: 6.00 Build 0)  -->

<svg
   version="1.1"
   id="Calque_1"
   x="0px"
   y="0px"
   viewBox="0 0 500 500"
   style="enable-background:new 0 0 500 500;"
   xml:space="preserve"
   sodipodi:docname="9_Plan de travail 1.svgz"
   xmlns:inkscape="http://www.inkscape.org/namespaces/inkscape"
   xmlns:sodipodi="http://sodipodi.sourceforge.net/DTD/sodipodi-0.dtd"
   xmlns="http://www.w3.org/2000/svg"
   xmlns:svg="http://www.w3.org/2000/svg"><defs
   id="defs15" /><sodipodi:namedview
   id="namedview13"
   pagecolor="#ffffff"
   bordercolor="#000000"
   borderopacity="0.25"
   inkscape:showpageshadow="2"
   inkscape:pageopacity="0.0"
   inkscape:pagecheckerboard="0"
   inkscape:deskcolor="#d1d1d1" />
<path
   style="fill:#13110C;"
   d="M210.022,478.669c-48.532,0-94.168-18.905-128.496-53.217  c-34.329-34.328-53.234-79.964-53.234-128.496c0-48.548,18.905-94.184,53.234-128.496c34.328-34.328,79.965-53.233,128.496-53.233  c48.531,0,94.168,18.905,128.496,53.233c34.329,34.312,53.234,79.948,53.234,128.496c0,48.532-18.905,94.168-53.234,128.496  C304.189,459.764,258.553,478.669,210.022,478.669 M210.022,141.988c-41.39,0-80.306,16.123-109.575,45.392  s-45.392,68.185-45.392,109.575s16.123,80.307,45.392,109.575c29.269,29.269,68.186,45.376,109.575,45.376  c41.389,0,80.306-16.107,109.575-45.376c29.269-29.268,45.392-68.185,45.392-109.575s-16.123-80.306-45.392-109.575  C290.328,158.112,251.411,141.988,210.022,141.988"
   id="path2" />
<path
   style="fill:#13110C;"
   d="M210.02,417.469c-32.197,0-62.459-12.528-85.22-35.289c-47.003-47.002-47.003-123.453,0-170.455  c46.986-46.986,123.452-46.986,170.439,0c47.003,47.002,47.003,123.453,0,170.455C272.479,404.941,242.217,417.469,210.02,417.469   M210.02,203.232c-24.014,0-48.028,9.144-66.298,27.415c-36.558,36.557-36.558,96.055,0,132.612  c17.701,17.7,41.26,27.463,66.298,27.463c25.038,0,48.597-9.762,66.298-27.463c36.558-36.558,36.558-96.056,0-132.612  C258.048,212.376,234.034,203.232,210.02,203.232"
   id="path4" />
<path
   style="fill:#13110C;"
   d="M210.064,355.113c-14.919,0-29.822-5.678-41.178-17.018c-10.998-10.998-17.067-25.624-17.067-41.177  c0-15.555,6.069-30.181,17.067-41.178c10.998-11.014,25.624-17.067,41.178-17.067c15.554,0,30.18,6.052,41.178,17.067  c22.712,22.695,22.712,59.643,0,82.355C239.886,349.435,224.983,355.113,210.064,355.113 M210.064,265.435  c-8.412,0-16.319,3.271-22.257,9.225c-5.938,5.938-9.225,13.846-9.225,22.257c0,8.395,3.287,16.301,9.225,22.256  c12.267,12.267,32.246,12.267,44.513,0c12.267-12.284,12.267-32.246,0-44.514C226.382,268.706,218.475,265.435,210.064,265.435"
   id="path6" />
<path
   style="fill:#13110C;"
   d="M212.415,307.937c-3.433,0-6.85-1.301-9.469-3.92c-5.223-5.222-5.223-13.699,0-18.922L347.712,140.33  c5.239-5.223,13.699-5.223,18.938,0c5.223,5.222,5.223,13.699,0,18.921L221.883,304.017  C219.264,306.636,215.831,307.937,212.415,307.937"
   id="path8" />
<path
   style="fill:#13110C;"
   d="M404.512,168.611c-0.602,0-1.22-0.033-1.822-0.098l-57.578-6.654l-6.654-57.578  c-0.553-4.799,1.09-9.517,4.506-12.934l64.785-64.785c4.311-4.312,10.559-5.744,16.318-3.726c5.759,2.001,9.762,7.013,10.461,13.064  l3.774,32.767l32.783,3.774c6.036,0.699,11.047,4.718,13.048,10.461c2.018,5.759,0.586,12.006-3.726,16.318l-64.785,64.785  C412.63,166.983,408.661,168.611,404.512,168.611 M369.256,137.714l31.205,3.596l44.903-44.887l-19.604-2.261  c-6.833-0.797-12.153-6.118-12.951-12.935l-2.261-19.621L365.66,106.51L369.256,137.714z"
   id="path10" />
</svg>
