<?xml version="1.0" encoding="UTF-8" standalone="no"?>
<!-- Generator: Adobe Illustrator 25.0.0, SVG Export Plug-In . SVG Version: 6.00 Build 0)  -->

<svg
   version="1.1"
   id="Calque_1"
   x="0px"
   y="0px"
   viewBox="0 0 500 500"
   style="enable-background:new 0 0 500 500;"
   xml:space="preserve"
   sodipodi:docname="21_Plan de travail 1.svgz"
   xmlns:inkscape="http://www.inkscape.org/namespaces/inkscape"
   xmlns:sodipodi="http://sodipodi.sourceforge.net/DTD/sodipodi-0.dtd"
   xmlns="http://www.w3.org/2000/svg"
   xmlns:svg="http://www.w3.org/2000/svg"><defs
   id="defs17" /><sodipodi:namedview
   id="namedview15"
   pagecolor="#ffffff"
   bordercolor="#000000"
   borderopacity="0.25"
   inkscape:showpageshadow="2"
   inkscape:pageopacity="0.0"
   inkscape:pagecheckerboard="0"
   inkscape:deskcolor="#d1d1d1" />
<g
   id="g4">
	<path
   d="M176.908,478.366c-10.939-2.332-21.376-5.922-30.942-11.883c-17.69-11.023-32.031-25.65-44.537-42.06   c-23.229-30.48-40.138-64.184-49.969-101.3c-9.37-35.377-8.618-70.491,4.893-104.657c14.865-37.589,40.233-64.935,79.859-77.035   c17.049-5.206,34.429-4.121,51.713-1.125c7.31,1.267,14.525,3.112,21.75,4.835c5.868,1.4,8.455,4.867,7.472,9.631   c-0.95,4.607-5.081,6.648-10.946,5.561c-11.382-2.108-22.715-4.622-34.18-6.111c-26.177-3.399-48.648,5.456-68.164,22.389   c-26.106,22.652-38.408,52.218-42.134,85.934c-3.451,31.227,3.96,60.579,15.752,89.042c12.86,31.041,30.105,59.377,53.923,83.362   c9.38,9.446,19.898,17.398,32.061,23.063c15.417,7.18,31.269,5.495,46.723,1.234c18.925-5.218,37.308-5.204,56.23,0.006   c15.613,4.299,31.609,5.95,47.132-1.419c11.562-5.489,21.816-12.888,30.664-21.992c35.524-36.554,58.506-79.968,68.634-129.842   c6.326-31.151,2.64-61.552-10.724-90.608c-0.905-1.968-1.71-4.264-1.599-6.356c0.19-3.578,2.376-6.05,6.062-6.721   c4.294-0.782,7.428,1.133,8.866,5.027c4.003,10.844,8.617,21.569,11.393,32.738c8.047,32.376,4.877,64.368-5.454,95.779   c-13.954,42.427-35.271,80.549-67.295,112.083c-13.806,13.594-29.387,24.672-48.829,29.009c-2.009,0.448-4.008,0.942-6.011,1.415   c-5.358,0-10.716,0-16.074,0c-2.902-0.48-5.825-0.86-8.702-1.46c-9.122-1.904-18.176-4.176-27.348-5.785   c-18.469-3.238-35.416,5.398-53.251,7.245C188.22,478.366,182.564,478.366,176.908,478.366z"
   id="path2" />
</g>
<g
   id="g8">
	<path
   d="M246.365,184.297c5.927-1.868,12.101-3.363,17.849-5.845c2.329-1.006,4.228-3.921,5.434-6.4   c1.87-3.844,5.221-6.132,9.205-5.215c3.811,0.877,6.345,4.601,5.896,8.803c-0.645,6.024-3.809,10.578-8.645,13.964   c-11.206,7.846-24.091,9.873-37.318,10.02c-12.162,0.136-24.054-1.698-34.857-7.789c-6.608-3.726-11.75-8.72-12.052-16.977   c-0.155-4.227,2.35-7.38,6.166-8.079c3.854-0.705,7.659,1.233,8.659,5.244c1.054,4.229,3.962,6.262,7.491,7.512   c4.84,1.713,9.861,2.913,16.01,4.679c-1.624-10.15-2.761-19.251-4.582-28.213c-3.502-17.234-8.966-33.864-16.499-49.786   c-0.444-0.938-0.864-1.894-1.206-2.873c-1.548-4.437-0.066-8.349,3.806-10.132c3.855-1.776,8.09-0.495,10.15,3.753   c3.107,6.406,5.787,13.022,8.548,19.591c1.147,2.73,2.036,5.568,3.241,8.906c1.023-1.352,1.866-2.32,2.549-3.39   c8.459-13.246,17.449-26.067,23.982-40.583c8.339-18.527,20.663-34.346,37.711-46.03c11.925-8.173,25.061-13.14,39.49-13.682   c10.672-0.4,21.395,0.115,32.078,0.603c5.98,0.273,9.035,3.704,8.642,8.591c-0.367,4.576-4.02,7.214-9.643,7.015   c-8.464-0.299-16.928-0.68-25.395-0.83c-19.728-0.35-35.622,8.105-48.986,21.918c-8.64,8.931-15.356,19.237-20.823,30.818   c19.341,9.618,38.107,20.24,57.864,28.486c33.573,14.012,61.763,0.516,80.974-23.167c10.905-13.443,18.194-28.847,23.126-45.391   c0.282-0.947,0.434-1.933,0.736-3.313c-14.019,1.82-27.21-1.152-40.422-3.923c-1.017-0.213-2.039-0.422-3.036-0.713   c-5.02-1.464-7.55-5.199-6.486-9.53c1.052-4.283,5.106-6.554,10.181-5.601c6.424,1.207,12.817,2.585,19.254,3.715   c9.699,1.703,19.048,1.613,28.097-3.515c6.315-3.578,12.331,1.299,11.085,8.866c-2.672,16.229-7.878,31.695-15.41,46.326   c-9.274,18.015-21.541,33.412-38.881,44.438c-22.992,14.621-47.482,16.94-72.532,7.309c-14.339-5.513-27.755-13.429-41.583-20.271   c-5.319-2.632-10.623-5.295-15.944-7.925c-2.525-1.248-4.25-0.724-5.891,1.831c-7.714,12.009-15.65,23.875-23.441,35.835   c-0.681,1.046-1.411,2.496-1.223,3.607C241.781,159.076,244.004,171.165,246.365,184.297z"
   id="path6" />
</g>
<g
   id="g12">
	<path
   d="M307.569,137.819c41.083,0.176,68.464,16.399,90.76,42.714c3.077,3.631,2.586,8.41-0.663,11.201   c-3.229,2.774-7.496,2.285-11.18-1.216c-6.777-6.44-13.096-13.482-20.467-19.154c-19.587-15.071-41.926-20.653-66.37-16.705   c-12.598,2.035-25.083,4.765-37.625,7.154c-1.604,0.305-3.234,0.56-4.861,0.639c-4.823,0.234-8.129-2.21-8.792-6.379   c-0.681-4.283,2.007-7.912,6.802-8.926c7.7-1.628,15.392-3.335,23.145-4.673C289.858,140.482,301.448,138.783,307.569,137.819z"
   id="path10" />
</g>
</svg>
