<?xml version="1.0" encoding="UTF-8" standalone="no"?>
<!-- Generator: Adobe Illustrator 25.0.0, SVG Export Plug-In . SVG Version: 6.00 Build 0)  -->

<svg
   version="1.1"
   id="Calque_1"
   x="0px"
   y="0px"
   viewBox="0 0 500 500"
   style="enable-background:new 0 0 500 500;"
   xml:space="preserve"
   sodipodi:docname="20.svgz"
   xmlns:inkscape="http://www.inkscape.org/namespaces/inkscape"
   xmlns:sodipodi="http://sodipodi.sourceforge.net/DTD/sodipodi-0.dtd"
   xmlns="http://www.w3.org/2000/svg"
   xmlns:svg="http://www.w3.org/2000/svg"><defs
   id="defs49" /><sodipodi:namedview
   id="namedview47"
   pagecolor="#ffffff"
   bordercolor="#000000"
   borderopacity="0.25"
   inkscape:showpageshadow="2"
   inkscape:pageopacity="0.0"
   inkscape:pagecheckerboard="0"
   inkscape:deskcolor="#d1d1d1" />
<g
   id="g2">
</g>
<g
   id="g4">
</g>
<g
   id="g6">
</g>
<g
   id="g8">
</g>
<g
   id="g12">
	<path
   style="fill:none;stroke:#000000;stroke-linecap:round;stroke-linejoin:round;stroke-miterlimit:10;"
   d="M459.557,225.192"
   id="path10" />
</g>
<g
   id="g16">
	<path
   style="fill:none;stroke:#000000;stroke-linecap:round;stroke-linejoin:round;stroke-miterlimit:10;"
   d="M40.439,274.798"
   id="path14" />
</g>
<g
   id="g20">
	<path
   d="M32.447,195.691c3.391-7.368,9.256-9.471,17.134-9.459c108.342,0.163,216.685,0.11,325.027,0.111   c12.229,0,16.578,4.417,16.449,16.666c-0.029,2.796-0.004,5.593-0.004,8.829c8.9,0,17.506-0.217,26.096,0.065   c7.599,0.249,15.468-0.052,22.712,1.833c17.077,4.441,27.788,19.6,27.693,37.255c-0.291,54.19-39.85,101.821-93.146,111.595   c-8.987,1.648-18.289,1.693-27.463,2.128c-2.699,0.128-4.335,0.907-5.943,3.036c-5.847,7.74-11.912,15.315-18.254,23.41   c1.721,0,3.075,0,4.428,0c16.287,0,32.574-0.024,48.86,0.008c12.755,0.025,18.625,9.521,12.49,20.578   c-17.779,32.044-44.87,50.495-81.275,55.174c-0.964,0.124-1.897,0.481-2.845,0.729c-61.757,0-123.514,0-185.271,0   c-0.943-0.249-1.873-0.623-2.832-0.729c-22.162-2.438-41.503-11.19-58.269-25.828c-10.88-9.499-18.941-21.096-25.586-33.784   c0-1.983,0-3.966,0-5.949c2.69-7.597,8.141-10.425,16.066-10.284c16.139,0.286,32.287,0.09,48.432,0.076   c1.188-0.001,2.376-0.132,4.154-0.238c-3.21-3.687-6.052-6.802-8.722-10.058c-2.781-3.392-5.503-6.843-8.066-10.402   c-28.372-39.409-43.357-83.856-49.36-131.651c-0.984-7.836-1.677-15.709-2.505-23.564   C32.447,208.722,32.447,202.206,32.447,195.691z M58.568,212.006c-0.086,0.66-0.203,1.068-0.183,1.47   c1.712,35.262,9.183,69.231,23.563,101.51c12.836,28.813,30.168,54.428,55.184,74.234c1.314,1.041,3.237,1.858,4.878,1.861   c46.457,0.099,92.915,0.098,139.373,0.004c1.649-0.003,3.585-0.759,4.902-1.786c19.748-15.406,34.744-34.792,46.644-56.641   c16.019-29.412,25.408-61,29.965-94.069c1.205-8.748,1.743-17.588,2.606-26.583C262.703,212.006,160.65,212.006,58.568,212.006z    M69.849,416.725c0.963,1.098,1.377,1.635,1.856,2.107c15.687,15.444,34.613,23.234,56.554,23.28   c55.64,0.116,111.28,0.058,166.92,0.025c13.686-0.008,26.637-3.132,38.65-9.782c7.264-4.021,13.939-8.812,19.864-15.63   C258.849,416.725,164.76,416.725,69.849,416.725z M358.649,338.958c2.978-0.256,5.366-0.334,7.715-0.681   c42.411-6.263,74.744-43.19,75.67-86.38c0.197-9.212-4.958-14.516-14.272-14.552c-11.746-0.045-23.493-0.019-35.239,0.001   c-1.217,0.002-2.433,0.174-3.697,0.271C384.524,273.191,374.956,306.843,358.649,338.958z"
   id="path18" />
</g>
<g
   id="g24">
	<path
   d="M132.919,120.582c0.041-6.244-3.114-11.593-7.619-16.392c-6.45-6.87-10.72-14.923-12.332-24.235   c-2.813-16.248,1.241-30.582,12.467-42.741c5.264-5.701,12.744-6.234,18.191-1.493c5.445,4.74,6.236,12.414,0.879,18.141   c-8.145,8.708-8.541,20.889-3.73,28.598c1.56,2.499,3.572,4.738,5.528,6.965c16.491,18.78,16.328,46.52-0.421,65.115   c-5.651,6.274-13.035,7.217-18.772,2.4c-5.755-4.833-6.155-12.386-0.675-18.82C130.651,133.168,133.18,127.724,132.919,120.582z"
   id="path22" />
</g>
<g
   id="g28">
	<path
   d="M213.624,160.148c-6.916-0.479-10.858-2.619-13.157-7.217c-2.467-4.934-1.872-9.697,1.67-13.845   c4.156-4.867,7.198-10.074,7.335-16.701c0.147-7.099-2.659-12.868-7.427-17.903c-6.477-6.841-10.831-14.837-12.513-24.142   c-2.841-15.711,0.725-29.773,11.274-41.884c5.971-6.855,13.464-7.845,19.329-2.717c5.725,5.006,5.771,12.336,0.121,19.227   c-7.203,8.784-8.287,18.932-2.756,27.884c1.473,2.384,3.444,4.48,5.307,6.601c16.632,18.937,16.284,47.557-1.119,65.665   C219.221,157.682,215.48,159.024,213.624,160.148z"
   id="path26" />
</g>
<g
   id="g32">
	<path
   d="M286.491,32.351c6.925,0.524,10.83,2.703,13.107,7.317c2.362,4.785,1.417,9.145-1.371,13.595   c-2.798,4.466-5.996,9.073-7.203,14.057c-1.973,8.144,1.649,15.085,7.296,21.122c10.042,10.735,14.211,23.614,12.896,38.195   c-1.029,11.408-5.731,21.241-13.756,29.382c-5.034,5.106-12.481,5.274-17.634,0.705c-5.171-4.586-6-12.043-1.245-17.511   c6.452-7.418,9.477-15.625,5.993-24.995c-1.567-4.215-4.716-8-7.712-11.498c-16.261-18.984-15.791-47.404,1.563-65.362   C280.897,34.801,284.636,33.469,286.491,32.351z"
   id="path30" />
</g>
<g
   id="g34">
</g>
<g
   id="g36">
</g>
<g
   id="g38">
</g>
<g
   id="g40">
</g>
<g
   id="g42">
</g>
<g
   id="g44">
</g>
</svg>
