<?xml version="1.0" encoding="UTF-8" standalone="no"?>
<!-- Generator: Adobe Illustrator 25.0.0, SVG Export Plug-In . SVG Version: 6.00 Build 0)  -->

<svg
   version="1.1"
   id="Calque_1"
   x="0px"
   y="0px"
   viewBox="0 0 500 500"
   style="enable-background:new 0 0 500 500;"
   xml:space="preserve"
   sodipodi:docname="19_Plan de travail 1.svgz"
   xmlns:inkscape="http://www.inkscape.org/namespaces/inkscape"
   xmlns:sodipodi="http://sodipodi.sourceforge.net/DTD/sodipodi-0.dtd"
   xmlns="http://www.w3.org/2000/svg"
   xmlns:svg="http://www.w3.org/2000/svg"><defs
   id="defs37" /><sodipodi:namedview
   id="namedview35"
   pagecolor="#ffffff"
   bordercolor="#000000"
   borderopacity="0.25"
   inkscape:showpageshadow="2"
   inkscape:pageopacity="0.0"
   inkscape:pagecheckerboard="0"
   inkscape:deskcolor="#d1d1d1" />
<g
   id="g4">
	<path
   d="M158.099,22.145c1.518,1.747,3.674,3.247,4.458,5.277c9.661,25.013,15.554,50.785,14.964,77.785   c-0.006,0.297,0.032,0.606-0.035,0.89c-3.258,13.828,2.25,25.289,10.661,35.331c16.975,20.268,34.504,40.071,51.814,60.057   c2.043,2.359,4.197,4.625,6.207,7.012c7.091,8.419,7.518,17.325,1.159,26.446c-5.789,8.302-14.176,13.396-22.855,18.075   c-2.194,1.182-4.461,2.227-6.968,3.47c2.213,6.867,3.904,13.605,9.308,18.652c4.475,4.18,5.218,9.636,2.66,14.731   c-2.895,5.765-6.768,11.085-10.624,16.298c-1.526,2.063-1.977,3.451-0.979,5.892c2.125,5.202,3.843,10.575,5.612,15.916   c1.21,3.653,0.079,6.707-2.794,9.187c-6.074,5.243-12.05,10.605-18.252,15.691c-2.305,1.89-2.688,3.601-1.971,6.469   c3.532,14.132,4.805,28.468,1.709,42.832c-5.52,25.612-24.801,38.64-50.674,34.346c-10.976-1.822-21.84-4.346-32.839-5.999   c-11.806-1.774-20.975,2.956-25.861,13.786c-3.814,8.455-6.465,17.469-9.189,26.371c-1.894,6.188-4.704,9.087-9.096,7.989   c-4.478-1.119-6.351-4.885-4.563-11.192c2.542-8.966,5.068-18.026,8.747-26.551c2.586-5.992,7.081-11.16,10.915-16.988   c-7.291-1.527-15.05-3.173-22.818-4.775c-7.706-1.589-15.426-3.111-23.13-4.706c-5.615-1.163-8.412-4.325-7.652-8.536   c0.815-4.517,4.668-6.505,10.491-5.293c33.28,6.927,66.511,14.098,99.864,20.65c7.277,1.429,15.202,1.931,22.439,0.653   c12.07-2.131,19.169-12.591,20.464-27.528c1.088-12.55,0.243-24.924-4.034-36.92c-1.566-4.391,0.363-8.055,3.419-10.826   c5.497-4.984,11.219-9.75,17.125-14.24c2.96-2.25,4.01-4.33,2.23-7.762c-1.351-2.605-2.329-5.403-3.658-8.555   c-7.215,2.561-14.166,5.002-21.097,7.5c-3.246,1.17-6.187,0.88-8.544-1.781c-3.373-3.809-1.598-9.44,3.679-11.398   c7.511-2.787,15.139-5.262,22.619-8.127c7.436-2.849,11.043-9.551,14.891-15.85c0.411-0.673-0.364-2.497-1.089-3.37   c-7.08-8.521-10.114-18.708-12.206-29.276c-0.854-4.313,1.308-6.766,5.127-8.72c7.763-3.971,15.348-8.306,22.866-12.729   c1.852-1.089,3.343-2.956,4.693-4.703c3.37-4.36,3.259-7.349-0.448-11.466c-14.024-15.573-28.55-30.722-41.999-46.775   c-8.736-10.427-16.302-21.906-23.692-33.365c-5.323-8.254-6.993-17.456-6.071-27.658c1.926-21.304-2.573-41.975-8.76-62.274   c-1.254-4.114-2.753-8.155-4.201-12.208c-2.162-6.047-1.624-7.913,3.521-11.733C155.125,22.145,156.612,22.145,158.099,22.145z"
   id="path2" />
</g>
<g
   id="g8">
	<path
   d="M378.225,297.507c-43.718-0.501-81.51-10.36-115.189-33.823c-2.677-1.865-5.233-3.921-7.733-6.022   c-4.045-3.399-4.807-7.556-2.126-10.815c2.785-3.386,6.758-3.423,10.982-0.02c21.892,17.634,47.018,27.99,74.457,33.177   c29.994,5.67,59.725,3.845,89.286-3.063c1.155-0.27,2.312-0.582,3.486-0.711c4.372-0.481,7.531,1.682,8.278,5.59   c0.677,3.54-1.428,7.085-5.496,7.915c-11.044,2.252-22.106,4.527-33.26,6.088C392.398,297.013,383.737,297.127,378.225,297.507z"
   id="path6" />
</g>
<g
   id="g12">
	<path
   d="M336.354,376.449c-2.16,2.797-3.275,5.67-5.144,6.298c-2.29,0.769-5.887,0.569-7.734-0.806   c-5.699-4.24-10.978-9.084-16.165-13.965c-29.678-27.927-54.283-59.67-72.13-96.455c-0.582-1.2-1.137-2.415-1.669-3.639   c-2.304-5.291-1.366-9.201,2.636-11.057c4.041-1.874,7.565,0.06,10.145,5.127c4.102,8.057,8.072,16.211,12.692,23.97   c18.695,31.397,42.09,58.855,69.917,82.555C331.464,370.661,333.543,373.413,336.354,376.449z"
   id="path10" />
</g>
<g
   id="g16">
	<path
   d="M399.087,350.137c-30.019-1.675-58.856-7.851-85.401-22.351c-8.274-4.52-15.898-10.315-23.486-15.973   c-4.535-3.381-5.011-7.869-2.161-11.124c2.871-3.279,7.059-2.964,11.35,0.62c19.509,16.296,42.328,25.614,66.985,30.2   c13.506,2.512,27.358,3.22,41.075,4.522c5.258,0.499,8.462,2.948,8.347,7.224c-0.114,4.25-3.433,6.875-8.7,6.88   C404.425,350.139,401.756,350.137,399.087,350.137z"
   id="path14" />
</g>
<g
   id="g20">
	<path
   d="M396.578,415.278c0.001,7.24-5.504,10.375-10.899,7.393c-11.149-6.162-22.123-12.645-33.108-19.1   c-3.062-1.8-5.948-3.911-8.845-5.976c-4.001-2.853-4.977-6.935-2.579-10.332c2.373-3.362,6.123-3.85,10.215-1.395   c13.59,8.154,27.246,16.201,40.734,24.522C394.244,411.715,395.654,414.238,396.578,415.278z"
   id="path18" />
</g>
<g
   id="g24">
	<path
   d="M442.504,333.996c3.852-0.524,7.214,0.048,9.087,3.905c1.672,3.443,0.92,7.292-2.337,8.416   c-4.44,1.532-9.506,2.004-14.202,1.635c-1.674-0.132-4.229-4.046-4.228-6.232c0.001-2.162,2.311-4.946,4.368-6.303   C437.108,334.153,440.026,334.409,442.504,333.996z"
   id="path22" />
</g>
<g
   id="g28">
	<path
   d="M422.611,438.334c-5.858-0.162-11.227-4.497-11.002-8.884c0.186-3.616,3.403-6.69,7.017-6.705   c5.636-0.024,11.249,4.319,11.2,8.667C429.784,435.263,426.471,438.441,422.611,438.334z"
   id="path26" />
</g>
<g
   id="g32">
	<path
   d="M464.112,275.587c0.017,4.517-4.413,8.054-10.018,7.998c-4.004-0.04-7.073-3.171-6.962-7.104   c0.118-4.223,4.517-7.743,9.839-7.875C460.867,268.51,464.097,271.668,464.112,275.587z"
   id="path30" />
</g>
</svg>
