<?xml version="1.0" encoding="UTF-8" standalone="no"?>
<!-- Generator: Adobe Illustrator 25.0.0, SVG Export Plug-In . SVG Version: 6.00 Build 0)  -->

<svg
   version="1.1"
   id="Calque_1"
   x="0px"
   y="0px"
   viewBox="0 0 500 500"
   style="enable-background:new 0 0 500 500;"
   xml:space="preserve"
   sodipodi:docname="1_Plan de travail 1.svgz"
   xmlns:inkscape="http://www.inkscape.org/namespaces/inkscape"
   xmlns:sodipodi="http://sodipodi.sourceforge.net/DTD/sodipodi-0.dtd"
   xmlns="http://www.w3.org/2000/svg"
   xmlns:svg="http://www.w3.org/2000/svg"><defs
   id="defs23" /><sodipodi:namedview
   id="namedview21"
   pagecolor="#ffffff"
   bordercolor="#000000"
   borderopacity="0.25"
   inkscape:showpageshadow="2"
   inkscape:pageopacity="0.0"
   inkscape:pagecheckerboard="0"
   inkscape:deskcolor="#d1d1d1" />
<path
   d="M221.169,241.516c-6.216-6.216-4.961-17.568,2.818-25.346l87.611-87.611c7.778-7.778,19.122-9.025,25.338-2.81  c6.228,6.228,4.968,17.56-2.809,25.338l-87.611,87.611C238.737,246.477,227.397,247.744,221.169,241.516z"
   id="path2" />
<path
   d="M216.329,236.676l-52.565-52.565c-6.209-6.209-6.222-16.306,0-22.528c6.221-6.221,16.319-6.209,22.529,0l52.565,52.565  c6.228,6.228,6.221,16.307,0,22.528C232.635,242.898,222.556,242.904,216.329,236.676z"
   id="path4" />
<path
   d="M436.92,135.73c-0.711,0-1.439-0.075-2.145-0.226c-2.937-0.619-5.469-2.486-6.938-5.111  c-7.939-14.286-17.883-27.457-29.551-39.119c-11.668-11.673-24.826-21.617-39.119-29.556c-2.625-1.462-4.492-3.995-5.116-6.938  c-0.619-2.937,0.063-6.013,1.884-8.407c1.764-2.324,3.66-4.51,5.643-6.492c11.766-11.772,27.411-18.248,44.051-18.248  c16.645,0,32.285,6.476,44.051,18.248c24.289,24.289,24.289,63.807,0,88.096c-1.995,1.995-4.175,3.897-6.493,5.649  C441.367,135.002,439.158,135.73,436.92,135.73z M380.884,50.565c11.529,7.499,22.277,16.218,32.088,26.023  c9.806,9.8,18.519,20.554,26.024,32.083c12.061-16.246,10.731-39.385-3.995-54.111c-7.846-7.845-18.276-12.159-29.371-12.159  C396.593,42.401,387.996,45.263,380.884,50.565z"
   id="path6" />
<path
   d="M63.081,135.73c-2.243,0-4.44-0.728-6.261-2.105c-2.33-1.752-4.51-3.654-6.505-5.649c-24.283-24.289-24.283-63.807,0-88.096  c11.772-11.772,27.411-18.248,44.057-18.248c16.64,0,32.285,6.476,44.051,18.248c1.989,1.983,3.885,4.174,5.643,6.492  c1.815,2.394,2.503,5.47,1.879,8.407c-0.619,2.942-2.481,5.475-5.117,6.938c-14.287,7.939-27.445,17.883-39.113,29.545  c-11.667,11.673-21.612,24.844-29.556,39.13c-1.463,2.625-3.989,4.492-6.932,5.111C64.52,135.655,63.792,135.73,63.081,135.73z   M94.371,42.401c-11.095,0-21.525,4.314-29.371,12.159c-14.726,14.727-16.056,37.865-3.995,54.111  c7.505-11.529,16.218-22.283,26.023-32.083c9.806-9.805,20.565-18.525,32.094-26.023C112,45.263,103.408,42.401,94.371,42.401z"
   id="path8" />
<path
   d="M249.998,436.836c-108.772,0-197.278-88.495-197.278-197.278c0-43.745,14.026-85.176,40.559-119.82  c25.665-33.534,62.061-58.355,102.463-69.895c17.571-5.013,35.83-7.557,54.256-7.557c18.432,0,36.69,2.544,54.261,7.557  c40.402,11.54,76.793,36.361,102.469,69.895c26.527,34.644,40.548,76.076,40.548,119.82  C447.276,348.341,358.781,436.836,249.998,436.836z M249.998,63.054c-16.501,0-32.834,2.272-48.555,6.759  C126.107,91.321,73.488,161.129,73.488,239.558c0,97.33,79.192,176.51,176.51,176.51c97.329,0,176.51-79.18,176.51-176.51  c0-78.429-52.608-148.237-127.949-169.745C282.838,65.326,266.505,63.054,249.998,63.054z"
   id="path10" />
<path
   d="M384.978,114.962c-2.654,0-5.314-1.006-7.337-3.041c-4.064-4.047-4.064-10.627,0-14.68l20.647-20.652  c4.059-4.053,10.633-4.053,14.686,0c4.059,4.053,4.059,10.633,0,14.686l-20.652,20.646  C390.297,113.956,387.637,114.962,384.978,114.962z"
   id="path12" />
<path
   d="M115.023,114.962c-2.659,0-5.319-1.006-7.343-3.041L87.028,91.274c-4.053-4.053-4.053-10.633,0-14.686  c4.059-4.053,10.627-4.053,14.686,0l20.652,20.652c4.053,4.053,4.053,10.633,0,14.68  C120.337,113.956,117.683,114.962,115.023,114.962z"
   id="path14" />
<path
   d="M104.628,478.366c-1.747,0-3.516-0.44-5.14-1.371c-4.978-2.845-6.707-9.187-3.862-14.159l41.524-72.682  c2.851-4.984,9.193-6.712,14.171-3.868c4.984,2.851,6.713,9.187,3.862,14.171l-41.53,72.676  C111.739,476.487,108.236,478.366,104.628,478.366z"
   id="path16" />
<path
   d="M395.373,478.366c-3.614,0-7.106-1.879-9.026-5.233l-41.536-72.676c-2.839-4.984-1.11-11.321,3.863-14.171  c4.984-2.844,11.321-1.116,14.171,3.868l41.53,72.682c2.844,4.973,1.121,11.315-3.862,14.159  C398.888,477.927,397.113,478.366,395.373,478.366z"
   id="path18" />
</svg>
