<?xml version="1.0" standalone="no"?>
<!DOCTYPE svg PUBLIC "-//W3C//DTD SVG 1.0//EN" "http://www.w3.org/TR/2001/REC-SVG-20010904/DTD/svg10.dtd">
<svg xmlns="http://www.w3.org/2000/svg" xmlns:xlink="http://www.w3.org/1999/xlink" id="body_1" width="1024" height="768">

<g transform="matrix(1.536 0 0 1.536 128.00003 -0)">
	<g>
        <path d="M37.727 277.51C 37.139 276.922 36.737 276.139 36.631 275.24902C 29.882 218.25102 45.74 162.04002 81.282 116.97403C 154.626 23.94403 289.99402 7.9320297 383.03497 81.28903C 401.20297 95.602036 416.88397 112.712036 429.64597 132.12503C 430.80698 133.89703 430.31396 136.27702 428.54398 137.43404C 426.76697 138.59703 424.386 138.06404 423.22998 136.33704C 410.91898 117.605034 395.79297 101.10803 378.28198 87.312035C 288.567 16.576035 158.03198 32.012035 87.29797 121.72003C 53.032974 165.18103 37.742973 219.38504 44.247974 274.34705C 44.496975 276.45206 42.992973 278.35803 40.888973 278.60605C 39.677 278.751 38.528 278.311 37.727 277.51z" stroke="none" fill="#000000" fill-rule="nonzero" />
	</g>
	<g>
        <path d="M98.072 401.924C 87.731995 391.584 78.46 380.194 70.369 367.88202C 69.207 366.109 69.699005 363.73 71.47401 362.57C 73.243004 361.40402 75.63501 361.948 76.785 363.67C 89.077 382.376 104.203 398.875 121.729004 412.69702C 211.443 483.42603 341.96802 467.976 412.708 378.26404C 446.975 334.80005 462.263 280.59903 455.75 225.64404C 455.5 223.54004 457.005 221.63205 459.108 221.38405C 461.217 221.14005 463.116 222.64204 463.366 224.74205C 470.124 281.73306 454.268 337.94104 418.724 383.01007C 345.379 476.05008 210.015 492.06906 116.97699 418.72107C 110.336 413.485 104.025 407.877 98.072 401.924z" stroke="none" fill="#000000" fill-rule="nonzero" />
	</g>
	<g>
        <path d="M358.188 119.761C 357.25497 118.828 356.832 117.439 357.189 116.066C 357.732 114.017 359.832 112.797005 361.882 113.343L361.882 113.343L423.598 129.654L439.918 67.95901C 440.462 65.91101 442.562 64.68901 444.611 65.23601C 446.645 65.76501 447.882 67.867004 447.34 69.92401L447.34 69.92401L430.037 135.32602C 429.494 137.37402 427.39398 138.59302 425.344 138.04903L425.344 138.04903L359.917 120.75303C 359.24 120.572 358.653 120.226 358.188 119.761z" stroke="none" fill="#000000" fill-rule="nonzero" />
	</g>
	<g>
        <path d="M54.25 433.032C 53.318 432.1 52.888 430.707 53.251 429.337L53.251 429.337L70.552 363.928C 70.813 362.945 71.453 362.105 72.334 361.596C 73.213 361.087 74.26 360.94 75.245 361.20502L75.245 361.20502L140.67001 378.522C 142.70201 379.05402 143.94202 381.151 143.39702 383.211C 142.85501 385.258 140.75502 386.479 138.70302 385.93298L138.70302 385.93298L76.99002 369.599L60.67102 431.30402C 60.12902 433.35202 58.02802 434.57303 55.97802 434.027C 55.3 433.845 54.716 433.497 54.25 433.032z" stroke="none" fill="#000000" fill-rule="nonzero" />
	</g>
</g>
</svg>