<?xml version="1.0" standalone="no"?>
<!DOCTYPE svg PUBLIC "-//W3C//DTD SVG 1.0//EN" "http://www.w3.org/TR/2001/REC-SVG-20010904/DTD/svg10.dtd">
<svg xmlns="http://www.w3.org/2000/svg" xmlns:xlink="http://www.w3.org/1999/xlink" id="body_1" width="1024" height="768">

<g transform="matrix(1.536 0 0 1.536 128.00003 -0)">
    <path d="M389.018 231.913C 378.76102 231.913 366.532 230.51 352.316 227.72C 316.7 220.737 272.19702 205.63501 227.02501 185.20401C 181.837 164.757 141.10901 141.31902 112.34201 119.20101C 77.66201 92.50601 64.58101 71.20601 72.33301 54.033012C 74.60501 49.02101 79.83301 42.339012 91.811005 39.04801C 98.811005 37.143013 107.364006 36.492012 117.955 37.07701C 136.882 38.11301 161.824 43.242012 190.056 51.89501C 196.905 53.983013 200.747 61.21601 198.642 68.06601C 196.554 74.89801 189.304 78.74101 182.471 76.65301C 158.69899 69.36901 137.5 64.742004 121.17899 63.272007C 104.95799 61.802006 98.409 63.907005 96.338 64.892006C 97.273994 68.09901 102.652 79.977005 133.174 102.462006C 160.069 122.29201 197.189 143.29001 237.683 161.599C 278.194 179.925 318.47 193.924 351.113 201.024C 388.165 209.093 400.628 205.301 403.668 203.881C 403.083 201.843 400.694 196.313 391.005 186.624C 380.932 176.551 365.897 164.924 347.538 153.03C 341.541 149.138 339.837 141.119 343.712 135.122C 347.604 129.108 355.62302 127.40399 361.637 131.29599C 383.83798 145.69598 401.613 159.829 413.056 172.191C 428.141 188.495 433.052 202.812 427.656 214.73999C 422.462 226.217 409.732 231.913 389.018 231.913" stroke="none" fill="#13110C" fill-rule="nonzero" />
    <path d="M177.112 194.414C 157.734 194.414 139.726 193.462 123.854996 191.541C 80.40399 186.279 58.285995 174.618 56.197998 155.908C 54.711 142.51001 64.399994 130.098 85.014 118.989006C 100.751 110.48601 123.437 102.351006 150.58301 95.435005C 157.516 93.68101 164.56601 97.87401 166.319 104.79001C 168.09 111.72201 163.897 118.77201 156.964 120.54301C 134.31201 126.30601 115.067 132.93901 101.31801 139.70401C 87.88701 146.33601 83.61001 151.147 82.37401 152.98502C 84.81301 155.29001 95.505005 162.74101 133.242 166.51602C 166.48601 169.84003 209.11801 168.97202 253.287 164.07703C 297.473 159.16603 339.253 150.66302 370.96 140.12202C 406.944 128.16103 415.731 118.539024 417.61798 115.76502C 415.998 114.22802 410.66898 110.40302 395.784 106.86102C 380.615 103.25302 360.051 101.03102 336.296 100.42902C 329.146 100.245026 323.499 94.315025 323.68298 87.16502C 323.86697 80.11502 329.62997 74.536026 336.62997 74.536026C 336.72998 74.536026 336.847 74.536026 336.94797 74.536026C 365.34695 75.25403 389.60297 78.19402 407.11 83.039024C 429.94598 89.35303 442.292 99.39403 443.79498 112.87502C 445.866 131.58603 426.839 147.82303 385.61 162.47403C 351.414 174.63503 305.44 184.34103 256.143 189.82103C 228.582 192.877 201.736 194.414 177.112 194.414" stroke="none" fill="#13110C" fill-rule="nonzero" />
    <path d="M406.652 470.988L94.594 470.988C 87.444 470.988 81.647 465.191 81.647 458.04102L81.647 458.04102L81.647 330.178C 81.647 278.82602 123.411 237.06201 174.763 237.06201L174.763 237.06201L326.482 237.06201C 377.818 237.06201 419.598 278.82602 419.598 330.178L419.598 330.178L419.598 458.042C 419.598 465.191 413.801 470.988 406.652 470.988zM107.541 445.094L393.70502 445.094L393.70502 330.178C 393.70502 293.109 363.552 262.956 326.48303 262.956L326.48303 262.956L174.763 262.956C 137.694 262.956 107.541 293.109 107.541 330.17798L107.541 330.17798L107.541 445.094z" stroke="none" fill="#13110C" fill-rule="nonzero" />
    <path d="M163.975 470.993C 156.82501 470.993 151.028 465.196 151.028 458.04602L151.028 458.04602L151.028 380.032C 151.028 372.88202 156.825 367.08502 163.975 367.08502C 171.125 367.08502 176.92201 372.88202 176.92201 380.032L176.92201 380.032L176.92201 458.04602C 176.922 465.196 171.125 470.993 163.975 470.993" stroke="none" fill="#13110C" fill-rule="nonzero" />
    <path d="M337.271 470.993C 330.121 470.993 324.324 465.196 324.324 458.04602L324.324 458.04602L324.324 380.032C 324.324 372.88202 330.121 367.08502 337.271 367.08502C 344.421 367.08502 350.218 372.88202 350.218 380.032L350.218 380.032L350.218 458.04602C 350.217 465.196 344.42 470.993 337.271 470.993" stroke="none" fill="#13110C" fill-rule="nonzero" />
    <path d="M250.623 262.962C 186.123 262.962 133.63501 210.49 133.63501 145.974C 133.63501 81.474 186.12302 29.001999 250.62302 29.001999C 315.12302 29.001999 367.61102 81.474 367.61102 145.974C 367.611 210.49 315.123 262.962 250.623 262.962M250.623 54.895C 200.389 54.895 159.528 95.757 159.528 145.973C 159.528 196.20601 200.389 237.06801 250.623 237.06801C 300.85602 237.06801 341.701 196.20601 341.701 145.973C 341.701 95.757 300.856 54.895 250.623 54.895" stroke="none" fill="#13110C" fill-rule="nonzero" />
</g>
</svg>