<?xml version="1.0" encoding="utf-8"?>
<!-- Generator: Adobe Illustrator 25.0.0, SVG Export Plug-In . SVG Version: 6.00 Build 0)  -->
<svg version="1.1" id="Calque_1" xmlns="http://www.w3.org/2000/svg" xmlns:xlink="http://www.w3.org/1999/xlink" x="0px" y="0px"
	 viewBox="0 0 200 200" style="enable-background:new 0 0 200 200;" xml:space="preserve">
<g>
</g>
<g>
</g>
<g>
</g>
<g>
</g>
<g>
	<path style="fill:#1D1D1B;" d="M296.333,178.508c-4.036-0.86-7.886-2.185-11.415-4.384c-6.526-4.067-11.817-9.463-16.431-15.517
		c-8.57-11.245-14.808-23.679-18.435-37.372c-3.457-13.051-3.179-26.006,1.805-38.611c5.484-13.868,14.843-23.956,29.462-28.42
		c6.29-1.921,12.702-1.52,19.078-0.415c2.697,0.468,5.359,1.148,8.024,1.784c2.165,0.516,3.119,1.796,2.757,3.553
		c-0.351,1.7-1.875,2.452-4.038,2.052c-4.199-0.778-8.38-1.705-12.61-2.254c-9.657-1.254-17.947,2.013-25.147,8.26
		c-9.631,8.357-14.17,19.265-15.544,31.703c-1.273,11.521,1.461,22.349,5.811,32.85c4.744,11.452,11.107,21.906,19.894,30.754
		c3.461,3.485,7.341,6.419,11.828,8.509c5.688,2.649,11.536,2.027,17.237,0.455c6.982-1.925,13.764-1.92,20.745,0.002
		c5.76,1.586,11.661,2.195,17.388-0.523c4.266-2.025,8.048-4.755,11.313-8.114c13.106-13.486,21.585-29.502,25.321-47.902
		c2.334-11.493,0.974-22.708-3.956-33.428c-0.334-0.726-0.631-1.573-0.59-2.345c0.07-1.32,0.877-2.232,2.236-2.48
		c1.584-0.288,2.741,0.418,3.271,1.855c1.477,4.001,3.179,7.957,4.203,12.078c2.969,11.944,1.799,23.747-2.012,35.335
		c-5.148,15.653-13.012,29.717-24.827,41.35c-5.093,5.015-10.841,9.102-18.014,10.702c-0.741,0.165-1.479,0.348-2.218,0.522
		c-1.977,0-3.953,0-5.93,0c-1.071-0.177-2.149-0.317-3.211-0.539c-3.365-0.702-6.706-1.541-10.089-2.134
		c-6.814-1.195-13.066,1.991-19.646,2.673C300.506,178.508,298.419,178.508,296.333,178.508z"/>
</g>
<g>
	<path style="fill:#1D1D1B;" d="M321.957,70.019c2.187-0.689,4.465-1.241,6.585-2.156c0.859-0.371,1.56-1.447,2.005-2.361
		c0.69-1.418,1.926-2.262,3.396-1.924c1.406,0.324,2.341,1.697,2.175,3.248c-0.238,2.222-1.405,3.902-3.19,5.152
		c-4.134,2.895-8.888,3.642-13.768,3.697c-4.487,0.05-8.874-0.626-12.86-2.873c-2.438-1.375-4.335-3.217-4.446-6.263
		c-0.057-1.56,0.867-2.723,2.275-2.98c1.422-0.26,2.826,0.455,3.195,1.935c0.389,1.56,1.461,2.31,2.764,2.771
		c1.785,0.632,3.638,1.075,5.906,1.726c-0.599-3.745-1.019-7.102-1.69-10.408c-1.292-6.358-3.308-12.493-6.087-18.367
		c-0.164-0.346-0.319-0.699-0.445-1.06c-0.571-1.637-0.024-3.08,1.404-3.738c1.422-0.655,2.984-0.183,3.745,1.385
		c1.146,2.363,2.135,4.804,3.154,7.227c0.423,1.007,0.751,2.054,1.196,3.285c0.377-0.499,0.688-0.856,0.94-1.251
		c3.121-4.887,6.437-9.617,8.848-14.972c3.076-6.835,7.623-12.671,13.913-16.982c4.399-3.015,9.246-4.848,14.569-5.048
		c3.937-0.148,7.893,0.042,11.834,0.222c2.206,0.101,3.333,1.366,3.188,3.169c-0.135,1.688-1.483,2.661-3.557,2.588
		c-3.123-0.11-6.245-0.251-9.369-0.306c-7.278-0.129-13.142,2.99-18.072,8.086c-3.187,3.295-5.665,7.097-7.682,11.37
		c7.136,3.548,14.059,7.467,21.348,10.509c12.386,5.169,22.786,0.19,29.874-8.547c4.023-4.959,6.712-10.642,8.532-16.746
		c0.104-0.349,0.16-0.713,0.272-1.222c-5.172,0.672-10.039-0.425-14.913-1.447c-0.375-0.079-0.752-0.156-1.12-0.263
		c-1.852-0.54-2.785-1.918-2.393-3.516c0.388-1.58,1.884-2.418,3.756-2.066c2.37,0.445,4.728,0.954,7.103,1.371
		c3.578,0.628,7.027,0.595,10.366-1.297c2.33-1.32,4.549,0.479,4.09,3.271c-0.986,5.987-2.906,11.693-5.685,17.091
		c-3.421,6.646-7.947,12.327-14.344,16.394c-8.482,5.394-17.517,6.249-26.759,2.696c-5.29-2.034-10.24-4.954-15.341-7.479
		c-1.962-0.971-3.919-1.954-5.882-2.924c-0.932-0.46-1.568-0.267-2.173,0.676c-2.846,4.43-5.774,8.808-8.648,13.22
		c-0.251,0.386-0.52,0.921-0.451,1.331C320.266,60.714,321.086,65.174,321.957,70.019z"/>
</g>
<g>
	<path style="fill:#1D1D1B;" d="M344.537,52.871c15.156,0.065,25.258,6.05,33.484,15.758c1.135,1.34,0.954,3.103-0.245,4.132
		c-1.191,1.024-2.765,0.843-4.125-0.449c-2.5-2.376-4.831-4.974-7.551-7.066c-7.226-5.56-15.467-7.619-24.485-6.163
		c-4.648,0.751-9.254,1.758-13.881,2.639c-0.592,0.113-1.193,0.207-1.793,0.236c-1.779,0.086-2.999-0.815-3.244-2.354
		c-0.251-1.58,0.741-2.919,2.509-3.293c2.841-0.601,5.678-1.23,8.539-1.724C338.003,53.854,342.279,53.227,344.537,52.871z"/>
</g>
<g>
	<path style="fill:#1C1C1B;" d="M69.388,188.149c-0.917,0-2.365-0.274-4-1.6c-12.809-10.38-18.562-70.239-16.199-168.553l0.07-2.928
		h107.634l0.105,2.891c0.006,0.152,0.558,15.466,0.733,36.483c0.187,22.301-0.028,54.488-2.116,81.181
		c-3.309,42.285-9.496,50.148-14.518,52.275l-0.561,0.237H69.719C69.618,188.145,69.508,188.149,69.388,188.149z M69.528,182.137
		h69.657c2.135-1.458,7.474-8.956,10.448-46.98c2.072-26.479,2.285-58.481,2.099-80.663c-0.131-15.603-0.469-28.042-0.635-33.424
		H55.118c-1.414,62.493,0.405,108.281,5.409,136.121C64.375,178.6,68.845,181.771,69.528,182.137z"/>
</g>
<g>
	<rect x="58.243" y="158.216" style="fill:#1C1C1B;" width="91.377" height="6"/>
</g>
<g>
	<path style="fill:#1C1C1B;" d="M130.869,64.867c-8.023,0-17.735-1.927-28.882-7.661c-1.34-0.52-12.167-4.675-23.396-7.707
		c-17.492-4.722-23.533-3.296-24.283-1.883l-5.301-2.811c3.01-5.678,12.92-6.024,31.189-1.088
		c12.252,3.311,23.643,7.769,24.122,7.957l0.28,0.127c29.676,15.333,47.46,0.986,48.202,0.368l3.869,4.585
		C156.1,57.24,146.826,64.867,130.869,64.867z"/>
</g>
</svg>
