<?xml version="1.0" encoding="UTF-8" standalone="no"?>
<!-- Generator: Adobe Illustrator 25.0.0, SVG Export Plug-In . SVG Version: 6.00 Build 0)  -->

<svg
   version="1.1"
   id="Calque_1"
   x="0px"
   y="0px"
   viewBox="0 0 500 500"
   style="enable-background:new 0 0 500 500;"
   xml:space="preserve"
   sodipodi:docname="13_Plan de travail 1.svgz"
   xmlns:inkscape="http://www.inkscape.org/namespaces/inkscape"
   xmlns:sodipodi="http://sodipodi.sourceforge.net/DTD/sodipodi-0.dtd"
   xmlns="http://www.w3.org/2000/svg"
   xmlns:svg="http://www.w3.org/2000/svg"><defs
   id="defs17" /><sodipodi:namedview
   id="namedview15"
   pagecolor="#ffffff"
   bordercolor="#000000"
   borderopacity="0.25"
   inkscape:showpageshadow="2"
   inkscape:pageopacity="0.0"
   inkscape:pagecheckerboard="0"
   inkscape:deskcolor="#d1d1d1" />
<g
   id="g4">
	<path
   style="fill:#1C1C1B;"
   d="M164.692,480.376c-1.227,0-3.625-0.399-6.69-2.884c-15.557-12.606-50.772-82.216-41.801-455.383   l0.035-1.464h281.22l0.053,1.445c0.016,0.415,1.521,42.182,2.002,99.541c0.51,60.831-0.076,148.609-5.766,221.334   c-6.651,85.022-18.302,129.917-35.616,137.249l-0.28,0.119H165.34C165.188,480.355,164.971,480.376,164.692,480.376z    M119.165,23.645c-3.824,160.823,0.112,282.379,11.7,361.282c9.677,65.888,22.339,84.815,29.026,90.234   c3.05,2.472,4.962,2.219,4.979,2.213l0.346-0.04h192.013c10.943-4.978,25.538-32.515,33.524-134.603   c5.682-72.619,6.267-160.304,5.757-221.075c-0.431-51.343-1.683-90.179-1.949-98.012H119.165z"
   id="path2" />
</g>
<g
   id="g8">
	<rect
   x="134.254"
   y="411.945"
   style="fill:#1C1C1B;"
   width="249.784"
   height="3"
   id="rect6" />
</g>
<g
   id="g12">
	<path
   style="fill:#1C1C1B;"
   d="M332.79,143.182c-20.559,0-46.381-4.772-76.203-20.169   c-34.909-13.706-127.722-44.521-139.006-23.233l-2.65-1.405c6.341-11.961,32.447-11.842,77.59,0.356   c33.136,8.954,64.918,21.394,65.236,21.518l0.14,0.063c44.693,23.094,80.138,21.915,102.005,16.859   c23.691-5.478,37.01-16.56,37.142-16.671l1.938,2.29c-0.556,0.471-13.891,11.598-38.231,17.265   C353.021,141.853,343.638,143.182,332.79,143.182z"
   id="path10" />
</g>
</svg>
