<?xml version="1.0" encoding="utf-8"?>
<!-- Generator: Adobe Illustrator 25.0.0, SVG Export Plug-In . SVG Version: 6.00 Build 0)  -->
<svg version="1.1" id="Calque_1" xmlns="http://www.w3.org/2000/svg" xmlns:xlink="http://www.w3.org/1999/xlink" x="0px" y="0px"
	 viewBox="0 0 200 200" style="enable-background:new 0 0 200 200;" xml:space="preserve">
<g>
	<path style="fill:#13110C;" d="M122.401,82.658c-0.098,0-0.197-0.005-0.297-0.018C110.567,81.274,99.851,76.565,91.023,69
		c-3.407,0.986-6.607,2.524-9.531,4.582c-1.127,0.794-2.688,0.524-3.483-0.605c-0.794-1.129-0.523-2.688,0.605-3.483
		c3.787-2.665,7.977-4.577,12.455-5.681c0.803-0.199,1.652,0.014,2.269,0.566c8.246,7.4,18.397,11.998,29.355,13.296
		c1.371,0.162,2.352,1.405,2.188,2.776C124.73,81.723,123.65,82.658,122.401,82.658z"/>
</g>
<g>
	<path style="fill:#13110C;" d="M99.999,129.716c-10.938,0-20.941-5.542-26.757-14.824c-0.733-1.17-0.379-2.713,0.792-3.445
		c1.169-0.735,2.712-0.38,3.446,0.791c4.896,7.813,13.314,12.479,22.52,12.479c9.201,0,17.615-4.656,22.507-12.455
		c0.736-1.17,2.281-1.521,3.446-0.79c1.17,0.734,1.523,2.277,0.79,3.446C120.929,124.184,110.932,129.716,99.999,129.716z"/>
</g>
<g>
	<path style="fill:#13110C;" d="M133.761,69.915c-1.167,0-2.211-0.822-2.448-2.01c-2.974-14.854-16.142-25.635-31.311-25.635
		c-15.101,0-28.259,10.721-31.288,25.492c-0.278,1.352-1.598,2.223-2.952,1.947c-1.353-0.277-2.224-1.599-1.947-2.952
		c3.504-17.086,18.723-29.487,36.187-29.487c17.544,0,32.773,12.471,36.213,29.653c0.271,1.354-0.606,2.671-1.961,2.942
		C134.089,69.898,133.924,69.915,133.761,69.915z"/>
</g>
<g>
	<path style="fill:#13110C;" d="M66.282,140.777c-1.211,0-2.274-0.881-2.467-2.114c-0.213-1.364,0.72-2.643,2.084-2.855
		l10.782-1.684c4.097-0.641,7.071-4.115,7.071-8.263c0-1.381,1.119-2.5,2.5-2.5s2.5,1.119,2.5,2.5
		c0,6.627-4.752,12.179-11.299,13.202l-10.783,1.684C66.54,140.768,66.41,140.777,66.282,140.777z"/>
</g>
<g>
	<path style="fill:#13110C;" d="M133.699,140.771c-0.128,0-0.258-0.01-0.388-0.03l-10.764-1.677
		c-6.549-1.023-11.301-6.575-11.301-13.202c0-1.381,1.119-2.5,2.5-2.5s2.5,1.119,2.5,2.5c0,4.147,2.974,7.622,7.071,8.263
		l10.763,1.677c1.364,0.212,2.298,1.49,2.085,2.854C135.975,139.89,134.91,140.771,133.699,140.771z"/>
</g>
<g>
	<path style="fill:#13110C;" d="M99.998,145.948c-7.875,0-15.41-3.363-20.673-9.228c-0.922-1.027-0.837-2.608,0.19-3.53
		c1.028-0.923,2.608-0.837,3.53,0.19c4.316,4.81,10.495,7.567,16.952,7.567c6.461,0,12.642-2.758,16.958-7.567
		c0.921-1.027,2.502-1.113,3.53-0.19c1.027,0.922,1.113,2.503,0.19,3.53C115.414,142.585,107.876,145.948,99.998,145.948z"/>
</g>
<g>
	<path style="fill:#13110C;" d="M111.759,97.981c-0.343,0-0.689-0.07-1.021-0.219l-2.95-1.323c-1.26-0.565-1.823-2.044-1.259-3.304
		c0.565-1.261,2.047-1.823,3.304-1.258l2.95,1.323c1.26,0.565,1.823,2.044,1.259,3.304
		C113.625,97.431,112.713,97.981,111.759,97.981z"/>
</g>
<g>
	<path style="fill:#13110C;" d="M88.242,97.981c-0.955,0-1.867-0.55-2.283-1.478c-0.565-1.26-0.001-2.739,1.258-3.304l2.95-1.323
		c1.26-0.566,2.74-0.001,3.304,1.258c0.565,1.26,0.001,2.739-1.258,3.304l-2.95,1.323C88.931,97.911,88.583,97.981,88.242,97.981z"
		/>
</g>
<g>
	<path style="fill:#13110C;" d="M159.68,179.068c-2.512,0-5.024-0.485-7.386-1.459c-5.002-2.063-8.94-6.16-10.807-11.241
		l-21.402-58.251c-0.448-1.22,0.112-2.579,1.29-3.128l21.036-9.812c1.175-0.549,2.578-0.106,3.226,1.022l11.869,20.707
		c0.687,1.198,0.272,2.726-0.926,3.412c-1.195,0.686-2.725,0.272-3.412-0.926l-10.727-18.713l-16.871,7.869l20.61,56.095
		c1.405,3.827,4.254,6.79,8.02,8.344c3.764,1.551,7.87,1.459,11.563-0.263c3.695-1.722,6.407-4.809,7.639-8.692
		s0.792-7.97-1.235-11.504l-5.062-8.834c-0.687-1.198-0.272-2.726,0.926-3.412c1.195-0.686,2.726-0.272,3.412,0.926l5.062,8.833
		c2.692,4.693,3.299,10.345,1.664,15.502c-1.636,5.157-5.387,9.427-10.293,11.713C165.289,178.463,162.485,179.068,159.68,179.068z"
		/>
</g>
<g>
	<path style="fill:#13110C;" d="M125.945,108.117c-0.298,0-0.597-0.054-0.881-0.16c-0.63-0.237-1.138-0.718-1.408-1.334
		c-2.003-4.561-2.833-9.602-2.399-14.582l0.583-6.652l-3.749-9.958c-0.965-2.563-0.836-5.447,0.355-7.913
		c1.421-2.929,4.071-4.935,7.271-5.506c3.198-0.571,6.376,0.392,8.718,2.643l3.677,3.534c3.856,3.704,5.801,8.884,5.335,14.211
		l-1.497,17.129c-0.077,0.89-0.624,1.67-1.434,2.048l-13.515,6.304C126.668,108.039,126.307,108.117,125.945,108.117z
		 M127.504,66.855c-0.301,0-0.604,0.026-0.907,0.081c-1.606,0.287-2.938,1.294-3.65,2.763c-0.597,1.234-0.661,2.683-0.176,3.971
		l3.949,10.491c0.132,0.351,0.184,0.726,0.15,1.099l-0.633,7.217c-0.286,3.289,0.09,6.61,1.09,9.737l9.768-4.556l1.372-15.691
		c0.333-3.812-1.059-7.52-3.818-10.17l-3.678-3.535C130.019,67.346,128.79,66.855,127.504,66.855z M139.46,99.313h0.01H139.46z"/>
</g>
<g>
	<path style="fill:#13110C;" d="M40.319,179.069c-2.807,0-5.611-0.605-8.199-1.812l0,0c-4.905-2.287-8.656-6.559-10.291-11.717
		c-1.634-5.157-1.028-10.807,1.664-15.499L54.367,96.2c0.646-1.127,2.047-1.572,3.226-1.022l21.03,9.807
		c1.177,0.549,1.738,1.908,1.29,3.128L58.516,166.37c-1.866,5.079-5.804,9.176-10.806,11.239
		C45.347,178.584,42.832,179.069,40.319,179.069z M34.233,172.726c3.693,1.723,7.802,1.813,11.57,0.262
		c3.767-1.554,6.615-4.516,8.02-8.342l20.604-56.101l-16.865-7.865l-29.731,51.848c-2.026,3.533-2.465,7.618-1.234,11.501
		C27.827,167.914,30.54,171.003,34.233,172.726L34.233,172.726z"/>
</g>
<g>
	<path style="fill:#13110C;" d="M74.055,108.117c-0.362,0-0.723-0.078-1.057-0.234l-13.515-6.304
		c-0.81-0.378-1.356-1.158-1.434-2.048l-1.497-17.129c-0.466-5.328,1.479-10.508,5.337-14.212l3.676-3.533
		c2.341-2.25,5.521-3.212,8.717-2.643c3.201,0.572,5.851,2.577,7.27,5.502c1.193,2.468,1.322,5.352,0.358,7.916l-3.75,9.958
		l0.583,6.65c0.434,4.98-0.396,10.022-2.399,14.583c-0.271,0.615-0.778,1.097-1.408,1.334
		C74.652,108.063,74.354,108.117,74.055,108.117z M62.905,97.658l9.768,4.556c1-3.128,1.376-6.449,1.089-9.739L73.13,85.26
		c-0.033-0.374,0.019-0.749,0.15-1.1l3.95-10.49c0.485-1.289,0.42-2.738-0.178-3.975c-0.711-1.465-2.042-2.473-3.648-2.76
		c-1.607-0.286-3.2,0.197-4.374,1.325l-3.677,3.534c-2.761,2.651-4.153,6.358-3.819,10.171L62.905,97.658z"/>
</g>
<g>
	<path style="fill:#13110C;" d="M95.042,112.221c-0.64,0-1.28-0.244-1.768-0.732c-0.976-0.977-0.976-2.56,0-3.535
		c3.707-3.707,9.739-3.706,13.448-0.001c0.977,0.977,0.977,2.56,0.001,3.536c-0.977,0.977-2.56,0.976-3.536,0.001
		c-1.758-1.76-4.62-1.759-6.377-0.001C96.322,111.977,95.682,112.221,95.042,112.221z"/>
</g>
<g>
	<path style="fill:#13110C;" d="M154.863,77.911c-0.869,0-1.713-0.454-2.174-1.263c-0.684-1.2-0.266-2.726,0.935-3.41l12.228-6.965
		l-5.967-3.441c-0.805-0.464-1.285-1.335-1.249-2.264c0.036-0.928,0.584-1.759,1.423-2.159l15.446-7.36
		c1.246-0.595,2.738-0.064,3.332,1.182s0.065,2.738-1.182,3.332l-11.152,5.314l5.625,3.244c0.776,0.448,1.253,1.276,1.251,2.172
		s-0.484,1.722-1.263,2.166l-16.018,9.124C155.708,77.805,155.283,77.911,154.863,77.911z"/>
</g>
<g>
	<path style="fill:#13110C;" d="M142.921,54.521c-0.545,0-1.095-0.178-1.555-0.543c-1.08-0.86-1.26-2.433-0.399-3.513l8.763-11.015
		l-6.826-0.978c-0.919-0.131-1.689-0.762-2.001-1.637s-0.111-1.851,0.518-2.533l11.602-12.577c0.937-1.015,2.519-1.079,3.533-0.143
		c1.015,0.936,1.078,2.518,0.143,3.532l-8.378,9.082l6.436,0.922c0.887,0.127,1.638,0.719,1.969,1.551s0.191,1.779-0.367,2.479
		l-11.478,14.428C144.386,54.198,143.657,54.521,142.921,54.521z"/>
</g>
<g>
	<path style="fill:#13110C;" d="M45.137,77.911c-0.419,0-0.844-0.106-1.235-0.328l-16.018-9.124c-0.778-0.443-1.26-1.27-1.263-2.166
		s0.475-1.725,1.251-2.172l5.625-3.244l-11.152-5.314c-1.247-0.594-1.775-2.086-1.182-3.332c0.594-1.247,2.086-1.776,3.332-1.182
		l15.446,7.36c0.838,0.399,1.386,1.231,1.423,2.159c0.037,0.928-0.444,1.8-1.249,2.264l-5.966,3.441l12.228,6.965
		c1.2,0.684,1.618,2.21,0.935,3.41C46.851,77.457,46.006,77.911,45.137,77.911z"/>
</g>
<g>
	<path style="fill:#13110C;" d="M57.079,54.521c-0.735,0-1.464-0.323-1.958-0.944L43.643,39.149
		c-0.558-0.701-0.698-1.647-0.367-2.479s1.082-1.424,1.969-1.551l6.435-0.922l-8.377-9.082c-0.937-1.015-0.873-2.596,0.143-3.532
		c1.014-0.936,2.596-0.874,3.532,0.143l11.602,12.577c0.63,0.682,0.829,1.658,0.518,2.533s-1.082,1.505-2.001,1.637l-6.825,0.978
		l8.763,11.015c0.859,1.08,0.68,2.653-0.4,3.513C58.173,54.343,57.624,54.521,57.079,54.521z"/>
</g>
<g>
	<path style="fill:#13110C;" d="M162.34,132.78c-0.66,0-1.3-0.271-1.771-0.73c-0.46-0.47-0.729-1.11-0.729-1.77
		c0-0.16,0.01-0.33,0.05-0.49c0.03-0.16,0.08-0.32,0.141-0.471c0.06-0.149,0.14-0.289,0.229-0.43c0.09-0.13,0.2-0.26,0.31-0.38
		c0.12-0.11,0.24-0.22,0.381-0.31c0.14-0.091,0.279-0.17,0.43-0.23c0.15-0.06,0.31-0.11,0.47-0.14c0.811-0.17,1.681,0.1,2.26,0.68
		c0.11,0.12,0.221,0.25,0.311,0.38c0.09,0.141,0.16,0.28,0.229,0.43c0.061,0.15,0.11,0.311,0.141,0.471
		c0.029,0.16,0.05,0.33,0.05,0.49c0,0.659-0.271,1.3-0.73,1.77c-0.119,0.11-0.25,0.22-0.38,0.31c-0.14,0.091-0.279,0.171-0.439,0.23
		c-0.15,0.06-0.3,0.11-0.46,0.14C162.67,132.76,162.5,132.78,162.34,132.78z"/>
</g>
<g>
	<path style="fill:#13110C;" d="M159.992,179.077H40.006c-1.381,0-2.5-1.119-2.5-2.5s1.119-2.5,2.5-2.5h119.986
		c1.381,0,2.5,1.119,2.5,2.5S161.373,179.077,159.992,179.077z"/>
</g>
</svg>
