<?xml version="1.0" encoding="UTF-8" standalone="no"?>
<!-- Generator: Adobe Illustrator 25.0.0, SVG Export Plug-In . SVG Version: 6.00 Build 0)  -->

<svg
   version="1.1"
   id="Calque_1"
   x="0px"
   y="0px"
   viewBox="0 0 500 500"
   style="enable-background:new 0 0 500 500;"
   xml:space="preserve"
   sodipodi:docname="7.svgz"
   xmlns:inkscape="http://www.inkscape.org/namespaces/inkscape"
   xmlns:sodipodi="http://sodipodi.sourceforge.net/DTD/sodipodi-0.dtd"
   xmlns="http://www.w3.org/2000/svg"
   xmlns:svg="http://www.w3.org/2000/svg"><defs
   id="defs101" /><sodipodi:namedview
   id="namedview99"
   pagecolor="#ffffff"
   bordercolor="#000000"
   borderopacity="0.25"
   inkscape:showpageshadow="2"
   inkscape:pageopacity="0.0"
   inkscape:pagecheckerboard="0"
   inkscape:deskcolor="#d1d1d1" />
<g
   id="g2">
</g>
<g
   id="g4">
</g>
<g
   id="g6">
</g>
<g
   id="g8">
</g>
<g
   id="g12">
	<path
   style="fill:#13110C;"
   d="M311.369,196.635c-0.039,0-0.079-0.002-0.118-0.007c-31.465-3.727-60.622-16.874-84.353-38.028   c-11.125,2.81-21.543,7.598-30.973,14.235c-0.453,0.318-1.075,0.209-1.394-0.242c-0.318-0.452-0.209-1.076,0.242-1.394   c9.778-6.882,20.598-11.817,32.157-14.668c0.319-0.079,0.66,0.005,0.907,0.227c23.494,21.085,52.418,34.186,83.647,37.884   c0.549,0.065,0.94,0.562,0.876,1.111C312.301,196.261,311.869,196.635,311.369,196.635z"
   id="path10" />
</g>
<g
   id="g16">
	<path
   style="fill:#13110C;"
   d="M249.997,325.566c-27.943,0-53.495-14.158-68.352-37.872c-0.293-0.469-0.151-1.086,0.317-1.379   c0.468-0.294,1.085-0.151,1.378,0.316c14.489,23.127,39.407,36.935,66.657,36.935c27.233,0,52.139-13.781,66.624-36.865   c0.293-0.468,0.911-0.61,1.378-0.315c0.468,0.293,0.609,0.91,0.315,1.378C303.462,311.435,277.923,325.566,249.997,325.566z"
   id="path14" />
</g>
<g
   id="g20">
	<path
   style="fill:#13110C;"
   d="M342.506,161.721c-0.467,0-0.885-0.329-0.979-0.804c-8.691-43.421-47.182-74.937-91.521-74.937   c-44.138,0-82.6,31.339-91.454,74.516c-0.11,0.542-0.641,0.89-1.18,0.779c-0.541-0.111-0.89-0.639-0.779-1.18   c9.044-44.104,48.33-76.115,93.413-76.115c45.29,0,84.604,32.191,93.482,76.544c0.108,0.542-0.242,1.068-0.784,1.177   C342.637,161.714,342.571,161.721,342.506,161.721z"
   id="path18" />
</g>
<g
   id="g24">
	<path
   style="fill:#13110C;"
   d="M157.626,355.872c-0.484,0-0.91-0.353-0.986-0.846c-0.085-0.546,0.288-1.058,0.833-1.143   l29.541-4.611c14.093-2.202,24.322-14.153,24.322-28.417c0-0.553,0.448-1,1-1s1,0.447,1,1c0,15.256-10.94,28.038-26.013,30.394   l-29.541,4.611C157.729,355.868,157.677,355.872,157.626,355.872z"
   id="path22" />
</g>
<g
   id="g28">
	<path
   style="fill:#13110C;"
   d="M342.322,355.855c-0.051,0-0.103-0.004-0.155-0.012l-29.489-4.595   c-15.073-2.355-26.014-15.138-26.014-30.394c0-0.553,0.447-1,1-1s1,0.447,1,1c0,14.264,10.229,26.215,24.322,28.417l29.489,4.595   c0.545,0.085,0.919,0.597,0.834,1.143C343.232,355.503,342.807,355.855,342.322,355.855z"
   id="path26" />
</g>
<g
   id="g32">
	<path
   style="fill:#13110C;"
   d="M249.993,370.041c-19.917,0-38.974-8.507-52.287-23.339c-0.369-0.411-0.335-1.043,0.076-1.412   c0.411-0.37,1.044-0.334,1.412,0.076c12.934,14.41,31.45,22.675,50.799,22.675c19.36,0,37.882-8.265,50.815-22.675   c0.369-0.411,1.002-0.444,1.412-0.076c0.411,0.369,0.445,1.001,0.076,1.412C288.984,361.534,269.921,370.041,249.993,370.041z"
   id="path30" />
</g>
<g
   id="g36">
	<path
   style="fill:#13110C;"
   d="M282.22,238.617c-0.137,0-0.275-0.028-0.408-0.088l-8.083-3.624   c-0.504-0.226-0.729-0.818-0.503-1.322c0.225-0.503,0.817-0.73,1.321-0.503l8.083,3.624c0.504,0.226,0.729,0.818,0.503,1.322   C282.967,238.397,282.603,238.617,282.22,238.617z"
   id="path34" />
</g>
<g
   id="g40">
	<path
   style="fill:#13110C;"
   d="M217.781,238.617c-0.382,0-0.747-0.22-0.913-0.591c-0.226-0.504,0-1.096,0.503-1.322l8.083-3.624   c0.502-0.227,1.096-0.001,1.322,0.503c0.226,0.504,0,1.096-0.503,1.322l-8.083,3.624   C218.057,238.589,217.918,238.617,217.781,238.617z"
   id="path38" />
</g>
<g
   id="g44">
	<path
   style="fill:#13110C;"
   d="M413.512,460.786c-6.122,0.001-12.248-1.183-18.006-3.557c-12.193-5.029-21.796-15.02-26.346-27.408   l-58.639-159.599c-0.18-0.487,0.045-1.031,0.516-1.251l57.635-26.885c0.474-0.219,1.032-0.042,1.29,0.409l32.519,56.733   c0.275,0.479,0.109,1.09-0.37,1.364c-0.477,0.273-1.09,0.109-1.364-0.37l-32.062-55.935l-55.969,26.108l58.321,158.736   c4.357,11.864,13.554,21.432,25.231,26.248c11.673,4.815,24.935,4.514,36.386-0.826c11.454-5.338,20.213-15.306,24.03-27.346   c3.818-12.044,2.402-25.238-3.885-36.202l-13.868-24.198c-0.275-0.479-0.109-1.09,0.37-1.364c0.477-0.274,1.09-0.109,1.364,0.37   l13.868,24.198c6.565,11.447,8.044,25.225,4.057,37.8c-3.985,12.573-13.131,22.981-25.091,28.555   C427.19,459.309,420.354,460.786,413.512,460.786z"
   id="path42" />
</g>
<g
   id="g48">
	<path
   style="fill:#13110C;"
   d="M321.086,266.392c-0.119,0-0.238-0.021-0.353-0.064c-0.252-0.095-0.455-0.287-0.563-0.533   c-5.096-11.6-7.206-24.426-6.104-37.092l1.716-19.547l-10.742-28.528c-2.082-5.533-1.803-11.755,0.767-17.072   c3.062-6.312,8.779-10.64,15.685-11.873c6.899-1.23,13.753,0.846,18.803,5.699l10.073,9.684   c9.283,8.916,13.965,21.385,12.844,34.21l-4.101,46.931c-0.031,0.356-0.25,0.668-0.573,0.819l-37.028,17.272   C321.375,266.36,321.23,266.392,321.086,266.392z M325.379,153.335c-1.17,0-2.353,0.104-3.536,0.315   c-6.268,1.12-11.457,5.047-14.236,10.776c-2.331,4.825-2.585,10.473-0.695,15.496l10.822,28.741   c0.053,0.141,0.074,0.291,0.061,0.44l-1.735,19.773c-1.044,11.992,0.87,24.13,5.538,35.174l35.571-16.593l4.051-46.356   c1.068-12.22-3.393-24.1-12.237-32.595l-10.074-9.684C335.191,155.251,330.397,153.335,325.379,153.335z M358.114,248.119h0.01   H358.114z"
   id="path46" />
</g>
<g
   id="g52">
	<path
   style="fill:#13110C;"
   d="M86.484,460.79c-6.844,0-13.68-1.478-19.991-4.421l0,0c-11.959-5.577-21.104-15.989-25.09-28.567   c-3.984-12.574-2.506-26.347,4.055-37.787l84.589-147.517c0.259-0.451,0.819-0.626,1.291-0.409l57.618,26.869   c0.471,0.22,0.695,0.764,0.516,1.251L130.85,429.824c-4.548,12.386-14.152,22.375-26.348,27.405   C98.741,459.605,92.609,460.789,86.484,460.79z M131.325,244.291L47.193,391.009c-6.284,10.957-7.699,24.146-3.883,36.188   c3.817,12.046,12.575,22.019,24.029,27.359l0,0c11.452,5.342,24.719,5.642,36.4,0.824c11.68-4.817,20.877-14.384,25.234-26.246   l58.305-158.753L131.325,244.291z"
   id="path50" />
</g>
<g
   id="g56">
	<path
   style="fill:#13110C;"
   d="M178.915,266.392c-0.145,0-0.289-0.031-0.423-0.094l-37.028-17.272   c-0.324-0.151-0.542-0.463-0.573-0.819l-4.101-46.931c-1.121-12.825,3.561-25.295,12.844-34.211l10.074-9.683   c5.049-4.854,11.903-6.932,18.802-5.699c6.905,1.233,12.622,5.56,15.684,11.872c2.57,5.317,2.85,11.54,0.768,17.073l-10.743,28.528   l1.716,19.546c1.103,12.667-1.008,25.493-6.104,37.093c-0.108,0.246-0.311,0.438-0.563,0.533   C179.154,266.37,179.034,266.392,178.915,266.392z M142.833,247.457l35.571,16.593c4.668-11.044,6.583-23.183,5.539-35.174   l-1.736-19.772c-0.013-0.149,0.007-0.299,0.06-0.44l10.823-28.741c1.89-5.023,1.636-10.671-0.696-15.497   c-2.779-5.727-7.967-9.655-14.235-10.774c-6.262-1.12-12.481,0.767-17.064,5.172l-10.074,9.683   c-8.846,8.495-13.306,20.375-12.238,32.595L142.833,247.457z"
   id="path54" />
</g>
<g
   id="g60">
	<path
   style="fill:#13110C;"
   d="M263.575,277.634c-0.256,0-0.512-0.098-0.707-0.293c-7.098-7.097-18.646-7.097-25.744,0   c-0.391,0.391-1.023,0.391-1.414,0s-0.391-1.023,0-1.414c7.879-7.878,20.695-7.877,28.572,0c0.391,0.391,0.391,1.023,0,1.414   C264.087,277.536,263.831,277.634,263.575,277.634z"
   id="path58" />
</g>
<g
   id="g64">
	<path
   style="fill:#13110C;"
   d="M400.311,183.628c-0.348,0-0.686-0.181-0.87-0.505c-0.273-0.48-0.105-1.091,0.374-1.364   l42.37-24.133l-25.188-14.528c-0.321-0.186-0.514-0.534-0.499-0.905c0.015-0.372,0.233-0.704,0.569-0.864l42.319-20.166   c0.5-0.237,1.096-0.025,1.332,0.473c0.238,0.499,0.026,1.095-0.473,1.333l-40.602,19.347l25.051,14.449   c0.311,0.179,0.501,0.511,0.5,0.869s-0.193,0.688-0.505,0.866l-43.886,24.997C400.648,183.586,400.479,183.628,400.311,183.628z"
   id="path62" />
</g>
<g
   id="g68">
	<path
   style="fill:#13110C;"
   d="M367.6,119.545c-0.218,0-0.438-0.071-0.621-0.217c-0.433-0.344-0.504-0.973-0.16-1.405l30.36-38.164   l-28.801-4.126c-0.368-0.053-0.676-0.305-0.801-0.655c-0.124-0.35-0.045-0.74,0.207-1.013l31.787-34.459   c0.375-0.406,1.007-0.431,1.413-0.057s0.432,1.007,0.058,1.413l-30.498,33.061l28.645,4.104c0.354,0.051,0.655,0.288,0.788,0.621   c0.132,0.333,0.076,0.711-0.147,0.992l-31.446,39.529C368.186,119.416,367.895,119.545,367.6,119.545z"
   id="path66" />
</g>
<g
   id="g72">
	<path
   style="fill:#13110C;"
   d="M99.69,183.628c-0.167,0-0.338-0.042-0.494-0.131L55.311,158.5   c-0.311-0.178-0.504-0.508-0.505-0.866s0.19-0.69,0.5-0.869l25.051-14.449l-40.603-19.347c-0.499-0.238-0.71-0.834-0.473-1.333   c0.238-0.499,0.835-0.709,1.333-0.473l42.32,20.166c0.335,0.16,0.555,0.492,0.569,0.864c0.015,0.371-0.178,0.72-0.5,0.905   l-25.188,14.528l42.37,24.133c0.479,0.273,0.647,0.884,0.374,1.364C100.376,183.447,100.038,183.628,99.69,183.628z"
   id="path70" />
</g>
<g
   id="g76">
	<path
   style="fill:#13110C;"
   d="M132.399,119.545c-0.294,0-0.585-0.129-0.783-0.377l-31.447-39.529   c-0.223-0.28-0.279-0.659-0.146-0.992s0.433-0.57,0.788-0.621l28.645-4.104L98.958,40.861c-0.375-0.406-0.349-1.039,0.057-1.413   s1.04-0.349,1.413,0.057l31.787,34.459c0.252,0.273,0.332,0.664,0.208,1.013c-0.125,0.35-0.433,0.602-0.801,0.655l-28.801,4.126   l30.361,38.164c0.344,0.432,0.272,1.062-0.16,1.405C132.837,119.474,132.618,119.545,132.399,119.545z"
   id="path74" />
</g>
<g
   id="g80">
	<path
   style="fill:#13110C;"
   d="M420.8,333.96c-0.27,0-0.52-0.101-0.71-0.29c-0.19-0.19-0.29-0.44-0.29-0.71   c0-0.13,0.02-0.26,0.07-0.38c0.06-0.12,0.13-0.23,0.22-0.32c0.37-0.38,1.05-0.38,1.41,0c0.1,0.09,0.17,0.2,0.22,0.32   s0.08,0.25,0.08,0.38c0,0.27-0.11,0.52-0.3,0.71C421.31,333.859,421.06,333.96,420.8,333.96z"
   id="path78" />
</g>
<g
   id="g84">
	<path
   style="fill:#13110C;"
   d="M414.367,460.808H85.625c-0.552,0-1-0.447-1-1s0.448-1,1-1h328.742c0.553,0,1,0.447,1,1   S414.92,460.808,414.367,460.808z"
   id="path82" />
</g>
<g
   id="g86">
</g>
<g
   id="g88">
</g>
<g
   id="g90">
</g>
<g
   id="g92">
</g>
<g
   id="g94">
</g>
<g
   id="g96">
</g>
</svg>
