<?xml version="1.0" encoding="UTF-8" standalone="no"?>
<!-- Generator: Adobe Illustrator 25.0.0, SVG Export Plug-In . SVG Version: 6.00 Build 0)  -->

<svg
   version="1.1"
   id="Calque_1"
   x="0px"
   y="0px"
   viewBox="0 0 500 500"
   style="enable-background:new 0 0 500 500;"
   xml:space="preserve"
   sodipodi:docname="11_Plan de travail 1.svgz"
   xmlns:inkscape="http://www.inkscape.org/namespaces/inkscape"
   xmlns:sodipodi="http://sodipodi.sourceforge.net/DTD/sodipodi-0.dtd"
   xmlns="http://www.w3.org/2000/svg"
   xmlns:svg="http://www.w3.org/2000/svg"><defs
   id="defs23" /><sodipodi:namedview
   id="namedview21"
   pagecolor="#ffffff"
   bordercolor="#000000"
   borderopacity="0.25"
   inkscape:showpageshadow="2"
   inkscape:pageopacity="0.0"
   inkscape:pagecheckerboard="0"
   inkscape:deskcolor="#d1d1d1" />
<path
   style="fill:#13110C;"
   d="M256.715,75.627l0.532-13.95c-4.804-0.187-9.694-0.187-14.497,0l0.532,13.95  C247.741,75.455,252.257,75.455,256.715,75.627"
   id="path2" />
<path
   style="fill:#13110C;"
   d="M271.736,62.784l-1.596,13.865c40.112,4.616,77.679,23.27,105.767,52.538l10.082-9.665  C355.642,87.91,315.07,67.76,271.736,62.784"
   id="path4" />
<path
   style="fill:#13110C;"
   d="M243.285,424.374l-0.532,13.951c2.402,0.086,4.818,0.129,7.249,0.129s4.847-0.043,7.249-0.129  l-0.532-13.951C252.259,424.547,247.743,424.547,243.285,424.374"
   id="path6" />
<path
   style="fill:#13110C;"
   d="M173.224,291.879h34.891v34.906c0,3.854,3.135,6.975,6.99,6.975h69.797  c3.854,0,6.975-3.121,6.975-6.975v-34.906h34.906c3.854,0,6.975-3.121,6.975-6.976v-69.797c0-3.869-3.121-6.99-6.975-6.99h-34.906  v-34.891c0-3.869-3.121-6.99-6.975-6.99h-69.797c-3.855,0-6.99,3.121-6.99,6.99v34.891h-34.891c-3.854,0-6.99,3.121-6.99,6.99  v69.797C166.235,288.758,169.37,291.879,173.224,291.879 M180.2,222.081h34.906c3.84,0,6.975-3.121,6.975-6.975V180.2h55.832v34.906  c0,3.855,3.135,6.975,6.99,6.975h34.891v55.847h-34.891c-3.854,0-6.99,3.107-6.99,6.975v34.891h-55.832v-34.891  c0-3.869-3.135-6.975-6.975-6.975H180.2V222.081z"
   id="path8" />
<path
   style="fill:#13110C;"
   d="M117.381,249.995c0,73.134,59.485,132.619,132.619,132.619s132.619-59.485,132.619-132.619  c0-73.119-59.485-132.619-132.619-132.619S117.381,176.876,117.381,249.995 M250,131.341c65.425,0,118.654,53.229,118.654,118.654  c0,65.44-53.229,118.668-118.654,118.668s-118.654-53.229-118.654-118.668C131.346,184.571,184.575,131.341,250,131.341"
   id="path10" />
<path
   style="fill:#13110C;"
   d="M75.501,250.001c0-88.71,66.36-163.253,154.351-173.349l-1.596-13.865  c-95.038,10.916-166.719,91.4-166.719,187.214c0,95.815,71.681,176.298,166.734,187.215l1.596-13.865  C141.861,413.255,75.501,338.711,75.501,250.001"
   id="path12" />
<path
   style="fill:#13110C;"
   d="M437.463,211.51c-2.517-4.2-9.449-4.2-11.98,0l-20.926,34.891c-1.309,2.157-1.338,4.847-0.101,7.047  c1.251,2.186,3.567,3.538,6.084,3.538h13.634c-3.394,85.589-68.359,156.522-154.034,166.374l1.596,13.85  c92.723-10.643,163.181-87.516,166.561-180.225h14.123c2.517,0,4.833-1.352,6.069-3.538c1.237-2.2,1.208-4.89-0.086-7.047  L437.463,211.51z M422.865,243.022l8.615-14.353l8.615,14.353H422.865z"
   id="path14" />
<path
   style="fill:#13110C;"
   d="M105.272,417.768c-16.209-4.473-18.568-6.832-23.04-23.055c-0.834-3.006-3.596-5.12-6.731-5.12  c-3.135,0-5.897,2.114-6.731,5.12c-4.473,16.209-6.832,18.582-23.04,23.055c-3.035,0.834-5.134,3.596-5.134,6.731  c0,3.135,2.1,5.897,5.134,6.731c16.209,4.473,18.568,6.846,23.04,23.055c0.834,3.02,3.596,5.12,6.731,5.12  c3.135,0,5.897-2.1,6.731-5.12c4.473-16.209,6.832-18.582,23.04-23.055c3.035-0.834,5.134-3.596,5.134-6.731  C110.407,421.363,108.307,418.602,105.272,417.768 M75.501,433.559c-2.373-3.797-5.25-6.673-9.061-9.06  c3.811-2.373,6.688-5.25,9.061-9.061c2.373,3.811,5.25,6.688,9.061,9.061C80.751,426.886,77.874,429.763,75.501,433.559"
   id="path16" />
<path
   style="fill:#13110C;"
   d="M454.27,68.77c-16.209-4.473-18.568-6.832-23.04-23.055c-0.834-3.006-3.596-5.12-6.731-5.12  c-3.135,0-5.897,2.114-6.731,5.12c-4.473,16.209-6.832,18.582-23.04,23.055c-3.035,0.834-5.134,3.596-5.134,6.731  c0,3.135,2.1,5.897,5.134,6.731c16.209,4.473,18.568,6.846,23.04,23.055c0.834,3.02,3.596,5.12,6.731,5.12  c3.135,0,5.897-2.1,6.731-5.12c4.473-16.209,6.832-18.582,23.04-23.055c3.035-0.834,5.134-3.596,5.134-6.731  C459.405,72.366,457.305,69.604,454.27,68.77 M424.499,84.562c-2.373-3.797-5.25-6.673-9.061-9.06  c3.811-2.373,6.688-5.25,9.061-9.061c2.373,3.811,5.249,6.688,9.061,9.061C429.748,77.889,426.872,80.765,424.499,84.562"
   id="path18" />
</svg>
