<?xml version="1.0" encoding="UTF-8" standalone="no"?>
<!-- Generator: Adobe Illustrator 25.0.0, SVG Export Plug-In . SVG Version: 6.00 Build 0)  -->

<svg
   version="1.1"
   id="Calque_1"
   x="0px"
   y="0px"
   viewBox="0 0 500 500"
   style="enable-background:new 0 0 500 500;"
   xml:space="preserve"
   sodipodi:docname="4_Plan de travail 1.svgz"
   xmlns:inkscape="http://www.inkscape.org/namespaces/inkscape"
   xmlns:sodipodi="http://sodipodi.sourceforge.net/DTD/sodipodi-0.dtd"
   xmlns="http://www.w3.org/2000/svg"
   xmlns:svg="http://www.w3.org/2000/svg"><defs
   id="defs11" /><sodipodi:namedview
   id="namedview9"
   pagecolor="#ffffff"
   bordercolor="#000000"
   borderopacity="0.25"
   inkscape:showpageshadow="2"
   inkscape:pageopacity="0.0"
   inkscape:pagecheckerboard="0"
   inkscape:deskcolor="#d1d1d1" />
<g
   id="g6">
	<path
   d="M358.168,64.957c51.279,0,100.987,37.078,100.987,120.107C459.155,321.11,250,434.081,250,434.081   S40.845,321.11,40.845,185.064c0-83.038,49.701-120.116,100.987-120.107c47.337,0.007,96.026,31.61,108.168,87.828   C262.144,96.561,310.826,64.957,358.168,64.957 M141.806,57.908c-29.021-0.001-55.582,11.039-74.796,31.086   c-21.729,22.67-33.214,55.89-33.214,96.07c0,32.436,11.387,66.142,33.845,100.184c17.704,26.836,42.321,53.977,73.168,80.672   c52.268,45.23,105.311,74.077,105.84,74.363l3.35,1.809l3.35-1.809c0.53-0.286,53.573-29.133,105.84-74.363   c30.848-26.694,55.465-53.836,73.169-80.672c22.458-34.042,33.845-67.749,33.845-100.184c0-40.176-11.489-73.395-33.224-96.067   c-19.22-20.048-45.788-31.088-74.811-31.088c-25.588,0-50.999,8.62-71.554,24.271c-16.311,12.42-28.726,28.487-36.615,47.203   c-7.889-18.712-20.305-34.778-36.616-47.197c-20.555-15.65-45.965-24.272-71.551-24.276h-0.018   C141.813,57.908,141.808,57.908,141.806,57.908L141.806,57.908z"
   id="path2" />
	<path
   d="M250,443.229l-3.825-2.065c-0.536-0.291-54.041-29.508-106.02-74.487c-30.917-26.754-55.595-53.965-73.348-80.877   c-22.568-34.208-34.011-68.1-34.011-100.735c0-40.443,11.582-73.902,33.493-96.762c19.403-20.245,46.222-31.394,75.513-31.394   c0.002,0,0.002,0,0.004,0h0.009c25.821,0.004,51.447,8.698,72.175,24.48c15.86,12.076,27.966,27.366,36.01,45.475   c8.043-18.112,20.149-33.404,36.009-45.48c20.728-15.783,46.354-24.476,72.159-24.476c29.299,0,56.123,11.15,75.533,31.396   c21.918,22.862,33.503,56.321,33.503,96.759c0,32.634-11.443,66.526-34.011,100.735c-17.753,26.91-42.431,54.121-73.35,80.877   c-52.139,45.119-105.485,74.198-106.018,74.486L250,443.229z M141.806,58.908c-28.743-0.001-55.049,10.93-74.074,30.778   c-21.547,22.479-32.936,55.461-32.936,95.378c0,32.236,11.332,65.758,33.681,99.633c17.652,26.759,42.209,53.832,72.987,80.467   c51.817,44.839,105.13,73.951,105.663,74.24l2.873,1.551l2.874-1.552c0.53-0.287,53.686-29.262,105.661-74.239   c30.78-26.637,55.337-53.709,72.988-80.467c22.349-33.876,33.681-67.397,33.681-99.633c0-39.913-11.393-72.893-32.946-95.375   c-19.029-19.849-45.342-30.78-74.09-30.78c-25.37,0-50.566,8.547-70.948,24.066c-16.195,12.332-28.408,28.076-36.299,46.795   L250,131.956l-0.921-2.186c-7.891-18.715-20.104-34.458-36.3-46.791c-20.382-15.518-45.578-24.067-70.945-24.071l-0.027-1V58.908z    M250,435.218l-0.475-0.257c-0.524-0.283-52.984-28.813-104.757-73.615c-30.429-26.332-54.679-53.055-72.078-79.428   c-21.795-33.037-32.846-65.624-32.846-96.854c0-38.591,10.906-70.365,31.54-91.888c18.063-18.842,43.076-29.219,70.43-29.219   c0.006,0,0.012,0,0.018,0c24.27,0.004,48.379,8.187,67.888,23.04c20.103,15.307,33.967,36.471,40.28,61.409   c6.314-24.942,20.178-46.108,40.278-61.414c19.508-14.854,43.618-23.034,67.89-23.034c27.359,0,52.377,10.379,70.445,29.226   c20.635,21.524,31.542,53.296,31.542,91.881c0,31.23-11.051,63.817-32.846,96.854c-17.398,26.373-41.649,53.096-72.077,79.428   c-51.773,44.802-104.233,73.332-104.757,73.615L250,435.218z M141.814,65.957c-26.805,0-51.302,10.157-68.986,28.603   c-20.27,21.143-30.983,52.439-30.983,90.504c0,69.889,56.667,133.603,104.204,174.746c48.982,42.393,98.582,70.172,103.951,73.131   c5.369-2.959,54.969-30.738,103.951-73.131c47.537-41.143,104.204-104.856,104.204-174.746c0-87.913-53.862-119.107-99.987-119.107   c-42.572,0-94.274,27.238-107.19,87.04L250,157.522l-0.978-4.526c-12.914-59.792-64.617-87.033-107.19-87.04   C141.827,65.957,141.819,65.957,141.814,65.957z"
   id="path4" />
</g>
</svg>
