<?xml version="1.0" encoding="utf-8"?>
<!-- Generator: Adobe Illustrator 25.0.0, SVG Export Plug-In . SVG Version: 6.00 Build 0)  -->
<svg version="1.1" id="Calque_1" xmlns="http://www.w3.org/2000/svg" xmlns:xlink="http://www.w3.org/1999/xlink" x="0px" y="0px"
	 viewBox="0 0 200 200" style="enable-background:new 0 0 200 200;" xml:space="preserve">
<g>
	<path style="fill:#13110C;" d="M58.325,123.993c-0.019,0-0.038,0-0.058-0.001c-11.004-0.249-19.957-9.409-19.957-20.42v-0.879
		c0-6.952,5.656-12.607,12.608-12.607h2.19c1.381,0,2.5,1.119,2.5,2.5s-1.119,2.5-2.5,2.5h-2.19c-4.195,0-7.608,3.413-7.608,7.607
		v0.879c0,8.315,6.76,15.233,15.07,15.422c1.38,0.031,2.474,1.175,2.443,2.556C60.792,122.911,59.679,123.993,58.325,123.993z"/>
</g>
<g>
	<path style="fill:#13110C;" d="M151.484,108.58c-0.116,0-0.234-0.008-0.354-0.024c-1.367-0.193-2.318-1.459-2.125-2.826
		c0.1-0.704,0.15-1.43,0.15-2.157v-0.879c0-4.195-3.413-7.607-7.607-7.607h-2.133c-1.381,0-2.5-1.119-2.5-2.5s1.119-2.5,2.5-2.5
		h2.133c6.952,0,12.607,5.656,12.607,12.607v0.879c0,0.961-0.067,1.923-0.199,2.858C153.78,107.679,152.71,108.58,151.484,108.58z"
		/>
</g>
<g>
	<path style="fill:#13110C;" d="M34.074,186.224c-0.332,0-0.668-0.066-0.992-0.207c-1.267-0.549-1.849-2.021-1.3-3.288
		c3.082-7.113,9.492-12.098,17.147-13.333l23.041-3.709c3.38-0.545,5.833-3.424,5.833-6.845v-10.496c0-1.381,1.119-2.5,2.5-2.5
		s2.5,1.119,2.5,2.5v10.496c0,5.889-4.222,10.844-10.038,11.78l-23.04,3.709c-5.962,0.963-10.955,4.845-13.355,10.386
		C35.961,185.659,35.041,186.224,34.074,186.224z"/>
</g>
<g>
	<path style="fill:#13110C;" d="M158.421,186.227c-0.967,0-1.887-0.564-2.295-1.508c-2.401-5.547-7.393-9.429-13.354-10.384
		l-7.215-1.164c-1.362-0.22-2.289-1.503-2.069-2.866c0.219-1.361,1.49-2.294,2.866-2.069l7.212,1.163
		c7.654,1.227,14.065,6.212,17.147,13.334c0.549,1.268-0.034,2.739-1.301,3.287C159.09,186.16,158.753,186.227,158.421,186.227z"/>
</g>
<g>
	<path style="fill:#13110C;" d="M95.729,121.617c-2.261,0-4.523-0.417-6.766-1.25c-1.294-0.48-1.954-1.92-1.474-3.214
		c0.481-1.295,1.92-1.955,3.214-1.474c3.157,1.172,6.222,1.249,9.369,0.235c1.315-0.425,2.722,0.299,3.146,1.613
		s-0.299,2.723-1.613,3.146C99.654,121.303,97.691,121.617,95.729,121.617z"/>
</g>
<g>
	<path style="fill:#13110C;" d="M138.432,103.248c-0.149,0-0.3-0.013-0.451-0.041c-1.358-0.247-2.259-1.549-2.011-2.908l0.336-1.842
		c0.117-0.654,0.268-1.975,0.422-3.714c0.225-2.441,0.163-4.784-0.181-6.971c-3.106-19.911-23.346-33.284-40.299-33.284
		c-6.463,0-13.493,1.975-19.793,5.56c-1.201,0.683-2.727,0.263-3.409-0.937c-0.683-1.2-0.264-2.726,0.937-3.409
		c7.145-4.065,14.844-6.214,22.266-6.214c19.021,0,41.738,15.072,45.239,37.51c0.408,2.592,0.482,5.35,0.221,8.195
		c-0.171,1.931-0.333,3.333-0.482,4.157l-0.337,1.846C140.668,102.403,139.616,103.248,138.432,103.248z"/>
</g>
<g>
	<path style="fill:#13110C;" d="M96.248,156.992c-6.979,0-16.241-5.158-27.531-15.332c-7.536-6.803-12.685-16.053-14.5-26.046
		l-2.947-16.262c-0.153-0.833-0.31-2.228-0.478-4.259c-0.236-2.864-0.15-5.592,0.256-8.108c1.411-8.85,5.909-17.116,13.007-23.899
		c0.999-0.953,2.581-0.917,3.535,0.081c0.954,0.998,0.918,2.581-0.081,3.535c-6.301,6.021-10.286,13.309-11.524,21.076
		c-0.343,2.123-0.413,4.444-0.21,6.904c0.189,2.29,0.33,3.316,0.414,3.773l2.948,16.267c1.619,8.911,6.21,17.16,12.929,23.226
		c10.05,9.057,18.638,14.045,24.182,14.045c1.265,0,2.697-0.257,4.256-0.764c1.308-0.424,2.723,0.291,3.15,1.605
		c0.427,1.312-0.292,2.724-1.605,3.15C99.991,156.653,98.039,156.992,96.248,156.992z"/>
</g>
<g>
	<path style="fill:#13110C;" d="M125.201,89.864c-0.246,0-0.496-0.037-0.744-0.113c-5.643-1.756-12.238-3.145-18.366-0.142
		c-1.24,0.607-2.738,0.095-3.345-1.146c-0.607-1.24-0.095-2.738,1.146-3.345c7.75-3.795,15.854-2.069,22.052-0.142
		c1.318,0.41,2.054,1.812,1.644,3.13C127.254,89.177,126.267,89.864,125.201,89.864z"/>
</g>
<g>
	<path style="fill:#13110C;" d="M67.294,89.864c-1.065,0-2.053-0.687-2.386-1.758c-0.41-1.318,0.326-2.72,1.645-3.13
		c6.195-1.927,14.301-3.653,22.051,0.142c1.24,0.607,1.753,2.104,1.146,3.345c-0.607,1.24-2.104,1.754-3.345,1.146
		c-6.131-3.002-12.726-1.613-18.366,0.142C67.791,89.827,67.541,89.864,67.294,89.864z"/>
</g>
<g>
	<path style="fill:#13110C;" d="M90.535,135.411c-2.383,0-4.709-0.593-6.576-1.516c-1.238-0.612-1.745-2.111-1.133-3.35
		c0.612-1.237,2.111-1.744,3.349-1.133c2.375,1.175,6.07,1.593,8.572-0.259c1.109-0.823,2.675-0.589,3.497,0.521
		c0.821,1.11,0.588,2.676-0.521,3.497C95.572,134.765,93.022,135.411,90.535,135.411z"/>
</g>
<g>
	<path style="fill:#13110C;" d="M77.034,105.426c-2.603,0-5.204-0.487-7.787-1.463c-1.292-0.488-1.943-1.931-1.456-3.222
		c0.488-1.292,1.932-1.945,3.222-1.456c4.049,1.53,7.989,1.529,12.045,0c1.291-0.491,2.734,0.165,3.221,1.457
		c0.488,1.292-0.165,2.734-1.457,3.221C82.238,104.938,79.635,105.426,77.034,105.426z"/>
</g>
<g>
	<path style="fill:#13110C;" d="M115.468,105.427c-2.611,0-5.222-0.49-7.798-1.467c-1.291-0.49-1.94-1.934-1.451-3.225
		c0.489-1.292,1.935-1.941,3.225-1.451c2.989,1.134,5.891,1.424,8.881,0.885c1.35-0.245,2.658,0.658,2.903,2.017
		c0.245,1.358-0.657,2.658-2.017,2.903C117.966,105.314,116.717,105.427,115.468,105.427z"/>
</g>
<g>
	<path style="fill:#13110C;" d="M174.918,186.223c-2.02,0-3.917-0.786-5.343-2.214l-18.301-18.301c-0.977-0.977-0.977-2.559,0-3.535
		s2.559-0.977,3.535,0l18.302,18.302c0.965,0.965,2.648,0.964,3.611,0.001c0.482-0.482,0.747-1.124,0.747-1.807
		c0-0.684-0.265-1.325-0.746-1.807l-18.282-18.283c-0.977-0.977-0.977-2.56,0-3.535c0.977-0.977,2.559-0.977,3.535,0l18.282,18.283
		c1.426,1.426,2.211,3.322,2.211,5.342s-0.785,3.916-2.211,5.342C178.834,185.437,176.937,186.223,174.918,186.223z"/>
</g>
<g>
	<path style="fill:#13110C;" d="M131.795,173.418c-4.667,0-9.212-0.834-13.509-2.479c-1.29-0.494-1.935-1.939-1.441-3.229
		c0.493-1.29,1.939-1.934,3.229-1.441c3.724,1.426,7.668,2.148,11.722,2.148c18.128,0,32.876-14.748,32.876-32.876
		s-14.748-32.877-32.876-32.877s-32.877,14.749-32.877,32.877c0,9.789,4.315,18.999,11.839,25.267
		c1.061,0.884,1.204,2.46,0.32,3.521c-0.883,1.061-2.46,1.205-3.521,0.32c-8.667-7.221-13.638-17.83-13.638-29.108
		c0-20.886,16.991-37.877,37.877-37.877c20.885,0,37.876,16.991,37.876,37.877C169.671,156.427,152.68,173.418,131.795,173.418z"/>
</g>
<g>
	<path style="fill:#13110C;" d="M131.793,163.312c-15.312,0-27.77-12.457-27.77-27.769s12.457-27.769,27.77-27.769
		c15.312,0,27.769,12.457,27.769,27.769S147.104,163.312,131.793,163.312z M131.793,112.774c-12.555,0-22.77,10.214-22.77,22.769
		s10.215,22.769,22.77,22.769s22.769-10.214,22.769-22.769S144.348,112.774,131.793,112.774z"/>
</g>
<g>
	<path style="fill:#13110C;" d="M113.287,155.246c-0.757,0-1.505-0.343-1.997-0.993c-0.832-1.102-0.613-2.669,0.488-3.502
		l8.879-6.708c0.283-0.214,0.448-0.552,0.442-0.905l-0.136-7.551c-0.024-1.381,1.074-2.52,2.455-2.545
		c1.378,0.005,2.52,1.074,2.545,2.455l0.136,7.556c0.031,1.95-0.878,3.811-2.43,4.981l-8.878,6.707
		C114.341,155.082,113.812,155.246,113.287,155.246z"/>
</g>
<g>
	<path style="fill:#13110C;" d="M138.017,137.433c-0.561,0-1.125-0.188-1.591-0.572c-1.064-0.879-1.215-2.454-0.336-3.52
		l4.737-5.738c1.407-1.702,3.634-2.516,5.798-2.122l10.223,1.842c1.358,0.244,2.262,1.544,2.017,2.903s-1.543,2.263-2.903,2.017
		l-10.224-1.842c-0.398-0.068-0.795,0.072-1.056,0.387l-4.736,5.737C139.451,137.123,138.736,137.433,138.017,137.433z"/>
</g>
<g>
	<path style="fill:#13110C;" d="M147.229,158.048c-0.704,0-1.404-0.296-1.898-0.873l-7.613-8.88
		c-0.899-1.048-0.778-2.626,0.271-3.524c1.046-0.898,2.627-0.778,3.524,0.271l7.613,8.88c0.899,1.048,0.778,2.626-0.271,3.524
		C148.385,157.85,147.806,158.048,147.229,158.048z"/>
</g>
<g>
	<path style="fill:#13110C;" d="M131.249,129.92c-1.291,0-2.385-0.993-2.489-2.302l-1.357-17.075
		c-0.109-1.377,0.918-2.581,2.294-2.69c1.378-0.094,2.581,0.918,2.69,2.294l1.357,17.075c0.109,1.377-0.918,2.581-2.294,2.69
		C131.383,129.917,131.315,129.92,131.249,129.92z"/>
</g>
<g>
	<path style="fill:#13110C;" d="M122.229,127.171c-0.859,0-1.696-0.443-2.161-1.239c-0.696-1.192-0.294-2.724,0.898-3.42
		l8.214-4.795c1.191-0.694,2.724-0.294,3.42,0.898s0.294,2.724-0.898,3.42l-8.214,4.795
		C123.091,127.062,122.657,127.171,122.229,127.171z"/>
</g>
<g>
	<path style="fill:#13110C;" d="M160.968,174.294c-0.64,0-1.279-0.244-1.768-0.732c-0.977-0.977-0.977-2.56,0-3.535l7.077-7.076
		c0.977-0.977,2.559-0.977,3.535,0s0.977,2.56,0,3.535l-7.077,7.076C162.247,174.05,161.607,174.294,160.968,174.294z"/>
</g>
<g>
	<path style="fill:#13110C;" d="M47.481,142.427c-0.919,0-1.854-0.043-2.807-0.128c-2.065-0.187-4.066-0.627-5.948-1.311
		c-1.298-0.471-1.968-1.904-1.497-3.202c0.471-1.299,1.905-1.97,3.203-1.497c1.477,0.535,3.055,0.882,4.69,1.029
		c4.783,0.435,11.562-0.27,16.692-6.052c0.917-1.031,2.497-1.126,3.529-0.211c1.033,0.916,1.127,2.497,0.211,3.529
		C60.977,139.745,54.769,142.427,47.481,142.427z"/>
</g>
<g>
	<path style="fill:#13110C;" d="M30.198,134.224c-0.761,0-1.512-0.346-2.003-1.002c-2.655-3.548-4.185-7.789-4.424-12.267
		c-0.198-3.564,0.419-7.02,1.833-10.265c0.593-1.368,0.327-2.918-0.681-3.945c-4.767-4.848-7.392-11.261-7.392-18.056
		c0-7.153,2.865-13.8,8.066-18.717c0.916-0.867,1.299-2.146,1-3.338c-0.458-1.807-0.69-3.674-0.69-5.547
		c0-7.658,3.826-14.74,10.234-18.945c0.75-0.495,1.282-1.278,1.494-2.202c2.309-10.219,11.602-17.641,22.097-17.641l0.452,0.007
		c0.994,0.023,1.942-0.375,2.645-1.088c4.732-4.8,11.047-7.442,17.784-7.442c4.893,0,9.636,1.418,13.717,4.101
		c1.151,0.759,2.695,0.759,3.842,0.001c4.076-2.684,8.817-4.103,13.713-4.103c6.736,0,13.051,2.642,17.782,7.44
		c0.704,0.717,1.651,1.125,2.589,1.091l0.51,0c10.665,0,19.752,7.254,22.098,17.641c0.21,0.917,0.742,1.701,1.498,2.2
		c6.402,4.201,10.229,11.283,10.229,18.941c0,1.882-0.232,3.751-0.691,5.554c-0.298,1.185,0.085,2.464,1.002,3.333
		c4.505,4.254,7.325,9.984,7.937,16.134c0.137,1.374-0.866,2.599-2.239,2.735c-1.381,0.138-2.599-0.866-2.735-2.24
		c-0.493-4.951-2.765-9.567-6.397-12.996c-2.229-2.111-3.154-5.25-2.414-8.192c0.358-1.407,0.539-2.861,0.539-4.328
		c0-5.968-2.982-11.487-7.977-14.764c-1.841-1.215-3.126-3.084-3.626-5.269c-1.8-7.969-9.042-13.749-17.222-13.749h-0.452
		c-2.304,0.05-4.544-0.889-6.209-2.583c-3.781-3.834-8.832-5.948-14.22-5.948c-3.916,0-7.706,1.133-10.962,3.278
		c-2.835,1.871-6.504,1.871-9.343,0c-3.26-2.144-7.054-3.277-10.968-3.277c-5.387,0-10.438,2.113-14.221,5.951
		c-1.665,1.691-3.955,2.62-6.265,2.58l-0.395-0.006c-8.179,0-15.421,5.782-17.221,13.749c-0.5,2.19-1.786,4.06-3.62,5.271
		c-5.001,3.281-7.983,8.8-7.983,14.768c0,1.459,0.181,2.915,0.538,4.324c0.742,2.947-0.183,6.086-2.412,8.194
		c-4.193,3.963-6.501,9.32-6.501,15.084c0,5.476,2.116,10.644,5.958,14.552c2.442,2.487,3.109,6.193,1.701,9.442
		c-1.102,2.527-1.581,5.217-1.427,7.999c0.187,3.492,1.375,6.79,3.435,9.543c0.827,1.105,0.602,2.672-0.503,3.5
		C31.245,134.062,30.719,134.224,30.198,134.224z"/>
</g>
<g>
	<path style="fill:#13110C;" d="M158.074,114.46c-0.906,0-1.78-0.495-2.225-1.355c-0.632-1.228-0.149-2.735,1.077-3.368
		c5.73-2.952,9.639-7.223,11.616-12.69c0.469-1.299,1.9-1.972,3.201-1.501c1.298,0.47,1.97,1.903,1.5,3.201
		c-2.42,6.693-7.14,11.886-14.026,15.436C158.852,114.37,158.46,114.46,158.074,114.46z"/>
</g>
<g>
	<path style="fill:#13110C;" d="M96.248,54.234c-1.381,0-2.5-1.119-2.5-2.5V20.985c0-1.381,1.119-2.5,2.5-2.5s2.5,1.119,2.5,2.5
		v30.749C98.748,53.115,97.628,54.234,96.248,54.234z"/>
</g>
<g>
	<path style="fill:#13110C;" d="M42.95,98.624c-1.157,0-2.196-0.808-2.444-1.986c-5.272-25.057,6.366-50.067,28.301-60.82
		c8.628-4.235,18.803-3.458,26.554,2.026c0.456,0.317,0.74,0.447,0.876,0.499c0.112-0.045,0.323-0.147,0.646-0.365
		c8.024-5.476,18.258-6.324,26.701-2.208c22.012,10.737,33.691,35.768,28.403,60.868c-0.285,1.351-1.614,2.213-2.962,1.931
		c-1.351-0.285-2.215-1.61-1.931-2.961c4.814-22.855-5.755-45.613-25.702-55.344c-6.834-3.332-15.146-2.622-21.697,1.848
		c-2.585,1.755-4.538,1.686-7.208-0.176c-6.269-4.437-14.494-5.056-21.478-1.629c-19.88,9.746-30.412,32.486-25.611,55.302
		c0.285,1.351-0.581,2.677-1.932,2.961C43.293,98.606,43.12,98.624,42.95,98.624z"/>
</g>
</svg>
