<?xml version="1.0" encoding="UTF-8" standalone="no"?>
<!-- Generator: Adobe Illustrator 25.0.0, SVG Export Plug-In . SVG Version: 6.00 Build 0)  -->

<svg
   version="1.1"
   id="Calque_1"
   x="0px"
   y="0px"
   viewBox="0 0 500 500"
   style="enable-background:new 0 0 500 500;"
   xml:space="preserve"
   sodipodi:docname="10.svgz"
   xmlns:inkscape="http://www.inkscape.org/namespaces/inkscape"
   xmlns:sodipodi="http://sodipodi.sourceforge.net/DTD/sodipodi-0.dtd"
   xmlns="http://www.w3.org/2000/svg"
   xmlns:svg="http://www.w3.org/2000/svg"><defs
   id="defs129" /><sodipodi:namedview
   id="namedview127"
   pagecolor="#ffffff"
   bordercolor="#000000"
   borderopacity="0.25"
   inkscape:showpageshadow="2"
   inkscape:pageopacity="0.0"
   inkscape:pagecheckerboard="0"
   inkscape:deskcolor="#d1d1d1" />
<g
   id="g2">
</g>
<g
   id="g4">
</g>
<g
   id="g6">
</g>
<g
   id="g8">
</g>
<g
   id="g12">
	<path
   style="fill:#13110C;"
   d="M140.43,307.508c-0.008,0-0.015,0-0.023,0c-12.625-0.285-24.448-5.419-33.292-14.453   c-8.855-9.048-13.731-21.003-13.731-33.663v-2.311c0-15.204,12.37-27.574,27.574-27.574h5.76c0.552,0,1,0.448,1,1s-0.448,1-1,1   h-5.76c-14.102,0-25.574,11.472-25.574,25.574v2.311c0,24.867,20.217,45.555,45.068,46.116c0.552,0.013,0.99,0.471,0.977,1.022   C141.417,307.075,140.971,307.508,140.43,307.508z"
   id="path10" />
</g>
<g
   id="g16">
	<path
   style="fill:#13110C;"
   d="M385.352,266.984c-0.047,0-0.094-0.003-0.142-0.01c-0.547-0.077-0.927-0.584-0.85-1.131   c0.298-2.103,0.449-4.273,0.449-6.452v-2.311c0-14.102-11.473-25.574-25.574-25.574h-5.606c-0.553,0-1-0.448-1-1s0.447-1,1-1h5.606   c15.204,0,27.574,12.37,27.574,27.574v2.311c0,2.272-0.158,4.537-0.469,6.733C386.27,266.624,385.842,266.984,385.352,266.984z"
   id="path14" />
</g>
<g
   id="g20">
	<path
   style="fill:#13110C;"
   d="M76.677,471.115c-0.133,0-0.268-0.026-0.397-0.082c-0.507-0.22-0.74-0.809-0.52-1.315   c7.343-16.95,22.617-28.826,40.857-31.769l60.573-9.753c11.603-1.868,20.024-11.749,20.024-23.496v-27.594c0-0.553,0.448-1,1-1   s1,0.447,1,1V404.7c0,12.734-9.128,23.446-21.706,25.471l-60.572,9.753c-17.562,2.833-32.27,14.268-39.34,30.589   C77.432,470.89,77.064,471.115,76.677,471.115z"
   id="path18" />
</g>
<g
   id="g24">
	<path
   style="fill:#13110C;"
   d="M403.593,471.122c-0.387,0-0.755-0.226-0.919-0.603c-7.07-16.338-21.777-27.772-39.339-30.588   l-18.963-3.06c-0.545-0.088-0.916-0.602-0.828-1.146c0.087-0.545,0.602-0.921,1.146-0.828l18.962,3.06   c18.239,2.924,33.514,14.8,40.857,31.768c0.219,0.507-0.014,1.096-0.521,1.315C403.859,471.096,403.725,471.122,403.593,471.122z"
   id="path22" />
</g>
<g
   id="g28">
	<path
   style="fill:#13110C;"
   d="M238.775,301.254c-5.297,0-10.595-0.978-15.854-2.932c-0.518-0.192-0.782-0.769-0.589-1.286   c0.193-0.517,0.768-0.781,1.286-0.589c9.383,3.487,18.898,3.723,28.28,0.7c0.525-0.165,1.09,0.12,1.259,0.646   s-0.12,1.089-0.646,1.259C247.953,300.52,243.364,301.254,238.775,301.254z"
   id="path26" />
</g>
<g
   id="g32">
	<path
   style="fill:#13110C;"
   d="M351.034,252.967c-0.06,0-0.12-0.005-0.181-0.017c-0.543-0.099-0.903-0.62-0.804-1.163l0.884-4.842   c0.436-2.425,0.881-6.925,1.177-10.273c0.632-6.857,0.457-13.479-0.519-19.687c-8.609-55.161-64.582-92.214-111.458-92.214   c-17.942,0-37.401,5.45-54.794,15.347c-0.48,0.273-1.09,0.105-1.364-0.375c-0.273-0.48-0.105-1.091,0.375-1.364   c17.945-10.211,37.235-15.609,55.783-15.609c47.702,0,104.667,37.733,113.435,93.905c1.001,6.37,1.181,13.159,0.534,20.177   c-0.3,3.385-0.752,7.95-1.201,10.45l-0.885,4.845C351.929,252.629,351.508,252.967,351.034,252.967z"
   id="path30" />
</g>
<g
   id="g36">
	<path
   style="fill:#13110C;"
   d="M240.136,394.266c-21.083,0-48.97-21.143-68.65-38.878c-18.899-17.059-31.815-40.262-36.369-65.334   l-7.748-42.75c-0.367-2.003-0.766-5.592-1.185-10.665c-0.585-7.076-0.376-13.794,0.621-19.968   c3.517-22.064,14.771-42.706,32.545-59.692c0.399-0.381,1.032-0.367,1.414,0.032c0.381,0.399,0.367,1.032-0.032,1.414   c-17.456,16.681-28.504,36.932-31.953,58.562c-0.971,6.017-1.174,12.572-0.603,19.486c0.408,4.937,0.809,8.558,1.159,10.471   l7.749,42.75c4.476,24.64,17.168,47.442,35.741,64.206c19.42,17.501,46.862,38.363,67.311,38.363c3.91,0,8.253-0.768,12.91-2.28   c0.523-0.171,1.089,0.116,1.26,0.643c0.171,0.524-0.117,1.089-0.643,1.26C248.807,393.466,244.256,394.266,240.136,394.266z"
   id="path34" />
</g>
<g
   id="g40">
	<path
   style="fill:#13110C;"
   d="M316.254,217.777c-0.098,0-0.198-0.015-0.297-0.045c-15.878-4.94-34.517-8.811-52.395-0.057   c-0.496,0.244-1.095,0.038-1.338-0.458c-0.242-0.496-0.037-1.095,0.459-1.338c18.505-9.062,37.614-5.113,53.867-0.057   c0.527,0.165,0.822,0.725,0.658,1.252C317.075,217.502,316.681,217.777,316.254,217.777z"
   id="path38" />
</g>
<g
   id="g44">
	<path
   style="fill:#13110C;"
   d="M164.016,217.777c-0.426,0-0.821-0.275-0.955-0.703c-0.164-0.527,0.13-1.088,0.658-1.252   c16.252-5.058,35.361-9.006,53.868,0.057c0.496,0.243,0.701,0.842,0.458,1.338c-0.242,0.496-0.839,0.702-1.338,0.458   c-17.876-8.753-36.517-4.884-52.393,0.057C164.215,217.763,164.115,217.777,164.016,217.777z"
   id="path42" />
</g>
<g
   id="g48">
	<path
   style="fill:#13110C;"
   d="M225.113,337.555c-5.343,0-10.594-1.348-14.817-3.436c-0.495-0.245-0.698-0.845-0.453-1.34   c0.244-0.495,0.842-0.699,1.34-0.453c7.969,3.939,19.818,5.097,28.322-1.198c0.444-0.33,1.07-0.236,1.399,0.209   c0.329,0.443,0.235,1.07-0.208,1.398C236.067,336.161,230.543,337.555,225.113,337.555z"
   id="path46" />
</g>
<g
   id="g52">
	<path
   style="fill:#13110C;"
   d="M189.619,258.683c-6.185,0-12.365-1.159-18.502-3.479c-0.517-0.195-0.777-0.772-0.582-1.289   c0.196-0.517,0.773-0.777,1.289-0.582c11.803,4.462,23.782,4.46,35.603,0c0.515-0.195,1.094,0.065,1.289,0.582   c0.195,0.518-0.066,1.094-0.583,1.289C201.989,257.522,195.801,258.683,189.619,258.683z"
   id="path50" />
</g>
<g
   id="g56">
	<path
   style="fill:#13110C;"
   d="M290.677,258.693c-6.199,0-12.403-1.167-18.534-3.494c-0.517-0.195-0.776-0.773-0.58-1.289   c0.196-0.517,0.775-0.778,1.289-0.58c8.707,3.303,17.56,4.18,26.313,2.6c0.552-0.101,1.063,0.264,1.162,0.807   c0.098,0.544-0.264,1.063-0.807,1.162C296.579,258.429,293.629,258.693,290.677,258.693z"
   id="path54" />
</g>
<g
   id="g60">
	<path
   style="fill:#13110C;"
   d="M446.966,471.115c-3.817,0-7.405-1.485-10.103-4.184l-48.118-48.118   c-0.391-0.391-0.391-1.023,0-1.414s1.023-0.391,1.414,0l48.118,48.118c2.32,2.32,5.405,3.598,8.688,3.598s6.369-1.277,8.689-3.598   c4.79-4.791,4.79-12.588,0-17.379l-48.067-48.067c-0.391-0.391-0.391-1.023,0-1.414s1.023-0.391,1.414,0l48.067,48.067   c5.57,5.571,5.57,14.636,0,20.207C454.372,469.63,450.783,471.115,446.966,471.115z"
   id="path58" />
</g>
<g
   id="g64">
	<path
   style="fill:#13110C;"
   d="M333.591,437.451c-11.589,0-22.867-2.069-33.523-6.149c-0.516-0.197-0.774-0.775-0.576-1.291   c0.197-0.517,0.779-0.771,1.291-0.576c10.427,3.992,21.466,6.017,32.809,6.017c50.733,0,92.009-41.274,92.009-92.008   c0-50.734-41.275-92.009-92.009-92.009s-92.008,41.274-92.008,92.009c0,27.396,12.075,53.169,33.129,70.712   c0.424,0.354,0.481,0.984,0.128,1.409c-0.354,0.423-0.982,0.481-1.409,0.128c-21.511-17.925-33.848-44.258-33.848-72.249   c0-51.837,42.172-94.009,94.008-94.009c51.837,0,94.009,42.172,94.009,94.009C427.6,395.279,385.428,437.451,333.591,437.451z"
   id="path62" />
</g>
<g
   id="g68">
	<path
   style="fill:#13110C;"
   d="M333.586,410.881c-37.184,0-67.435-30.251-67.435-67.435s30.251-67.435,67.435-67.435   s67.435,30.251,67.435,67.435S370.77,410.881,333.586,410.881z M333.586,278.012c-36.081,0-65.435,29.354-65.435,65.435   s29.354,65.435,65.435,65.435s65.435-29.354,65.435-65.435S369.667,278.012,333.586,278.012z"
   id="path66" />
</g>
<g
   id="g72">
	<path
   style="fill:#13110C;"
   d="M284.929,389.674c-0.303,0-0.603-0.137-0.799-0.397c-0.333-0.44-0.245-1.067,0.195-1.4   l23.345-17.636c2.159-1.627,3.42-4.213,3.375-6.917l-0.357-19.861c-0.01-0.552,0.43-1.008,0.982-1.018   c0.539,0.004,1.008,0.43,1.018,0.982l0.357,19.862c0.056,3.343-1.504,6.538-4.171,8.548l-23.344,17.635   C285.351,389.608,285.139,389.674,284.929,389.674z"
   id="path70" />
</g>
<g
   id="g76">
	<path
   style="fill:#13110C;"
   d="M349.952,342.842c-0.224,0-0.449-0.075-0.636-0.229c-0.426-0.352-0.486-0.982-0.135-1.408   l12.454-15.088c2.417-2.922,6.231-4.317,9.954-3.644l26.88,4.842c0.543,0.098,0.904,0.618,0.807,1.162   c-0.098,0.543-0.61,0.903-1.162,0.807l-26.88-4.842c-3.008-0.548-6.1,0.583-8.057,2.949l-12.453,15.087   C350.526,342.718,350.24,342.842,349.952,342.842z"
   id="path74" />
</g>
<g
   id="g80">
	<path
   style="fill:#13110C;"
   d="M374.168,397.042c-0.281,0-0.562-0.118-0.759-0.35l-20.015-23.346   c-0.36-0.419-0.312-1.05,0.108-1.409c0.419-0.359,1.051-0.312,1.409,0.108l20.015,23.346c0.36,0.419,0.312,1.05-0.108,1.409   C374.63,396.963,374.398,397.042,374.168,397.042z"
   id="path78" />
</g>
<g
   id="g84">
	<path
   style="fill:#13110C;"
   d="M332.163,323.089c-0.517,0-0.954-0.397-0.996-0.921l-3.568-44.891   c-0.044-0.551,0.367-1.032,0.918-1.076c0.541-0.043,1.032,0.367,1.076,0.918l3.568,44.891c0.044,0.551-0.367,1.032-0.918,1.076   C332.217,323.088,332.189,323.089,332.163,323.089z"
   id="path82" />
</g>
<g
   id="g88">
	<path
   style="fill:#13110C;"
   d="M308.438,315.863c-0.344,0-0.679-0.178-0.864-0.496c-0.278-0.477-0.118-1.089,0.359-1.367   l21.595-12.606c0.478-0.279,1.09-0.117,1.367,0.359c0.278,0.477,0.118,1.089-0.359,1.367l-21.595,12.606   C308.782,315.819,308.608,315.863,308.438,315.863z"
   id="path86" />
</g>
<g
   id="g92">
	<path
   style="fill:#13110C;"
   d="M410.292,439.755c-0.256,0-0.512-0.098-0.707-0.293c-0.391-0.391-0.391-1.023,0-1.414l18.604-18.604   c0.391-0.391,1.023-0.391,1.414,0s0.391,1.023,0,1.414l-18.604,18.604C410.804,439.657,410.548,439.755,410.292,439.755z"
   id="path90" />
</g>
<g
   id="g96">
	<path
   style="fill:#13110C;"
   d="M111.793,355.963c-2.36,0-4.621-0.115-6.75-0.307c-4.952-0.446-9.741-1.501-14.235-3.132   c-0.519-0.188-0.787-0.763-0.599-1.281c0.188-0.52,0.763-0.784,1.281-0.6c4.332,1.573,8.952,2.59,13.732,3.021   c13.857,1.246,33.528-0.824,48.555-17.764c0.367-0.412,0.998-0.451,1.412-0.084c0.413,0.366,0.451,0.998,0.084,1.412   C142.01,352.18,125.3,355.963,111.793,355.963z"
   id="path94" />
</g>
<g
   id="g100">
	<path
   style="fill:#13110C;"
   d="M66.479,334.404c-0.305,0-0.605-0.139-0.802-0.4c-6.317-8.441-9.958-18.542-10.528-29.21   c-0.472-8.504,0.996-16.735,4.364-24.461c2.47-5.699,1.323-12.178-2.923-16.503c-11.503-11.7-17.838-27.174-17.838-43.568   c0-17.258,6.912-33.296,19.462-45.158c3.872-3.663,5.482-9.099,4.203-14.185c-1.091-4.313-1.645-8.763-1.645-13.225   c0-18.25,9.119-35.128,24.392-45.148c3.186-2.104,5.425-5.374,6.302-9.208c5.503-24.363,27.65-42.048,52.661-42.048   c0.203,0,0.41,0.004,0.617,0.009c0.192,0.004,0.385,0.008,0.573,0.008c4.04,0.087,8.004-1.557,10.926-4.527   c11.381-11.544,26.575-17.901,42.782-17.901c11.774,0,23.187,3.412,33.002,9.867c4.931,3.25,11.301,3.25,16.231,0   c9.799-6.455,21.207-9.867,32.987-9.867c16.206,0,31.399,6.357,42.781,17.9c2.922,2.971,6.886,4.61,10.903,4.528l1.213,0   c25.013,0,47.16,17.678,52.662,42.034c0.876,3.831,3.115,7.102,6.304,9.207c15.271,10.019,24.389,26.896,24.389,45.147   c0,4.482-0.554,8.932-1.646,13.227c-1.278,5.084,0.333,10.52,4.205,14.183c10.874,10.271,17.676,24.095,19.15,38.925   c0.055,0.55-0.347,1.04-0.896,1.094c-0.54,0.062-1.038-0.347-1.094-0.896c-1.427-14.351-8.009-27.729-18.534-37.669   c-4.397-4.161-6.225-10.34-4.77-16.126c1.051-4.137,1.584-8.421,1.584-12.737c0-17.574-8.78-33.827-23.488-43.477   c-3.622-2.391-6.162-6.096-7.154-10.434c-5.299-23.455-26.626-40.477-50.712-40.477h-1.189c-4.557,0.116-9.044-1.762-12.352-5.125   c-11.002-11.158-25.689-17.304-41.356-17.304c-11.389,0-22.415,3.298-31.886,9.537c-5.599,3.689-12.833,3.689-18.431,0   c-9.488-6.239-20.52-9.537-31.902-9.537c-15.667,0-30.355,6.146-41.357,17.305c-3.307,3.362-7.823,5.239-12.375,5.123   c-0.185,0.007-0.386-0.004-0.592-0.008c-0.192-0.004-0.385-0.008-0.574-0.008c-24.084,0-45.411,17.029-50.71,40.491   c-0.993,4.341-3.534,8.046-7.153,10.435c-14.71,9.651-23.491,25.904-23.491,43.478c0,4.297,0.533,8.582,1.583,12.736   c1.457,5.788-0.371,11.967-4.767,16.127c-12.147,11.481-18.836,27.002-18.836,43.705c0,15.867,6.131,30.842,17.264,42.167   c4.82,4.909,6.127,12.25,3.331,18.701c-3.243,7.439-4.656,15.363-4.201,23.555c0.549,10.274,4.053,19.997,10.133,28.12   c0.331,0.442,0.241,1.069-0.202,1.4C66.897,334.34,66.688,334.404,66.479,334.404z"
   id="path98" />
</g>
<g
   id="g104">
	<path
   style="fill:#13110C;"
   d="M402.679,282.44c-0.362,0-0.713-0.197-0.89-0.542c-0.253-0.491-0.061-1.094,0.431-1.347   c16.353-8.425,27.531-20.68,33.228-36.424c0.188-0.519,0.763-0.787,1.28-0.6c0.52,0.188,0.788,0.761,0.601,1.281   c-5.873,16.233-17.377,28.857-34.192,37.521C402.989,282.405,402.833,282.44,402.679,282.44z"
   id="path102" />
</g>
<g
   id="g108">
	<path
   style="fill:#13110C;"
   d="M240.134,124.104c-0.552,0-1-0.448-1-1V42.261c0-0.552,0.448-1,1-1s1,0.448,1,1v80.843   C241.134,123.656,240.687,124.104,240.134,124.104z"
   id="path106" />
</g>
<g
   id="g112">
	<path
   style="fill:#13110C;"
   d="M380.247,240.808c-0.068,0-0.138-0.007-0.207-0.021c-0.541-0.114-0.887-0.644-0.772-1.185   c13.187-62.59-15.839-124.956-70.584-151.661c-19.758-9.636-43.756-7.62-62.628,5.263c-2.284,1.548-4.273,2.332-5.916,2.332   c-1.846,0-4.039-0.904-6.706-2.763c-18.118-12.82-41.913-14.625-62.109-4.713c-54.557,26.743-83.478,89.06-70.331,151.542   c0.114,0.541-0.232,1.071-0.772,1.185c-0.54,0.112-1.071-0.232-1.185-0.772c-6.439-30.601-3.074-62.555,9.476-89.975   c12.899-28.185,34.314-50.238,61.932-63.775c20.853-10.233,45.431-8.367,64.139,4.873c2.282,1.591,4.153,2.399,5.556,2.399   c1.218,0,2.875-0.687,4.791-1.985c19.461-13.283,44.226-15.355,64.63-5.407c27.7,13.513,49.188,35.569,62.137,63.784   c12.6,27.451,15.983,59.444,9.527,90.087C381.125,240.485,380.71,240.808,380.247,240.808z"
   id="path110" />
</g>
<g
   id="g114">
</g>
<g
   id="g116">
</g>
<g
   id="g118">
</g>
<g
   id="g120">
</g>
<g
   id="g122">
</g>
<g
   id="g124">
</g>
</svg>
