<?xml version="1.0" encoding="UTF-8" standalone="no"?>
<!-- Generator: Adobe Illustrator 25.0.0, SVG Export Plug-In . SVG Version: 6.00 Build 0)  -->

<svg
   version="1.1"
   id="Calque_1"
   x="0px"
   y="0px"
   viewBox="0 0 500 500"
   style="enable-background:new 0 0 500 500;"
   xml:space="preserve"
   sodipodi:docname="17_Plan de travail 1.svgz"
   xmlns:inkscape="http://www.inkscape.org/namespaces/inkscape"
   xmlns:sodipodi="http://sodipodi.sourceforge.net/DTD/sodipodi-0.dtd"
   xmlns="http://www.w3.org/2000/svg"
   xmlns:svg="http://www.w3.org/2000/svg"><defs
   id="defs17" /><sodipodi:namedview
   id="namedview15"
   pagecolor="#ffffff"
   bordercolor="#000000"
   borderopacity="0.25"
   inkscape:showpageshadow="2"
   inkscape:pageopacity="0.0"
   inkscape:pagecheckerboard="0"
   inkscape:deskcolor="#d1d1d1" />
<g
   id="g4">
	<path
   d="M229.881,160.321c0-8.935,0-17.546,0-26.771c-6.428,0-12.748-0.274-19.037,0.053c-16.875,0.876-29.506-5.803-37.164-20.902   c-2.618-5.163-5.884-7.162-11.666-6.587c-4.449,0.442-9.158,0.161-13.524-0.816c-10.083-2.254-17.39-11.339-17.574-21.667   c-0.233-13.034-0.248-26.079-0.008-39.113c0.238-12.912,10.738-22.797,24.048-22.84c25.173-0.082,50.346-0.025,75.519-0.025   c37.608,0,75.216-0.007,112.824,0.003c16.307,0.005,25.917,9.668,25.937,26.055c0.014,11.371,0.062,22.742-0.014,34.112   c-0.095,14.248-10.19,24.99-24.358,24.194c-10.26-0.577-16.737,1.863-21.785,11.611c-5.668,10.945-16.453,15.681-28.847,15.894   c-7.86,0.135-15.725,0.025-23.881,0.025c0,9.01,0,17.73,0,26.83c9.975,2.123,12.514,9.196,12.782,18.728   c2.203,78.346,4.709,156.683,7.041,235.025c0.297,9.979,1.282,20.132-0.068,29.926c-2.939,21.33-22.35,36.008-43.43,34.152   c-21.206-1.867-37.658-19.438-37.402-40.895c0.278-23.341,1.27-46.674,1.978-70.009c1.388-45.762,2.792-91.523,4.197-137.285   c0.544-17.729,1.108-35.457,1.669-53.185C217.424,167.179,220.459,163.193,229.881,160.321z M274.607,297.086   c0-14.465,0.255-28.402-0.055-42.327c-0.574-25.754-1.527-51.5-2.2-77.253c-0.11-4.223-1.698-5.906-6.038-5.817   c-10.606,0.216-21.22,0.064-31.831,0.073c-6.011,0.005-6.545,0.39-6.725,6.382c-1.167,38.776-2.273,77.555-3.381,116.333   c-0.024,0.844,0.167,1.694,0.265,2.609C241.727,297.086,258.49,297.086,274.607,297.086z M221.734,378.439   c-0.57,20.455-1.174,40.44-1.619,60.429c-0.053,2.37,0.541,4.827,1.224,7.129c4.129,13.907,18.072,23.072,32.131,21.242   c15.093-1.965,26.56-14.301,26.481-29.341c-0.082-15.607-0.849-31.209-1.261-46.815c-0.11-4.178-0.017-8.361-0.017-12.643   C259.234,378.439,240.79,378.439,221.734,378.439z M276.207,308.484c-17.628,0-34.813,0-52.344,0   c-0.583,19.678-1.159,39.102-1.734,58.495c18.933,0,37.316,0,55.828,0C277.37,347.391,276.796,328.181,276.207,308.484z    M170.16,95.018c53.506,0,106.612,0,159.733,0c0-4.511,0-8.696,0-13.078c-53.324,0-106.429,0-159.733,0   C170.16,86.363,170.16,90.547,170.16,95.018z M182.776,106.342c4.591,9.719,11.365,16.023,21.769,16.132   c30.326,0.318,60.658,0.241,90.986,0.039c9.815-0.065,18.829-7.35,21.182-16.171C272.269,106.342,227.845,106.342,182.776,106.342z    M158.737,95.082c0-20.99,0-41.65,0-62.286c-11.846-0.817-16.97,3.891-16.981,15.326c-0.011,10.599-0.009,21.197,0,31.796   C141.764,91.397,146.863,96.027,158.737,95.082z M341.324,32.799c0,20.989,0,41.648,0,62.281   c11.885,0.949,16.985-3.681,16.995-15.163c0.009-10.598,0.011-21.196,0-31.794C358.306,36.694,353.166,31.973,341.324,32.799z    M329.827,37.795c0-1.796,0-3.356,0-4.925c-53.412,0-106.543,0-159.669,0c0,1.771,0,3.239,0,4.925   C223.479,37.795,276.61,37.795,329.827,37.795z M329.916,49.239c-53.484,0-106.616,0-159.767,0c0,1.766,0,3.234,0,4.931   c53.313,0,106.444,0,159.767,0C329.916,52.487,329.916,51.018,329.916,49.239z M329.914,65.614c-53.48,0-106.611,0-159.767,0   c0,1.763,0,3.231,0,4.931c53.312,0,106.443,0,159.767,0C329.914,68.864,329.914,67.396,329.914,65.614z M241.133,160.515   c6.179,0,11.98,0,17.639,0c0-9.161,0-17.99,0-26.717c-6.062,0-11.756,0-17.639,0C241.133,142.763,241.133,151.482,241.133,160.515z   "
   id="path2" />
</g>
<g
   id="g8">
	<path
   d="M232.749,240.183c0-9.229-0.024-18.458,0.01-27.687c0.018-4.853,1.939-7.353,5.587-7.12   c4.309,0.274,5.343,3.185,5.336,6.951c-0.035,18.761-0.001,37.521-0.025,56.282c-0.006,4.793-1.993,7.377-5.591,7.127   c-4.274-0.296-5.364-3.163-5.339-6.958C232.791,259.247,232.749,249.715,232.749,240.183z"
   id="path6" />
</g>
<g
   id="g12">
	<path
   d="M243.681,191.962c-0.032,3.601-1.388,6.176-5.372,6.378c-3.542,0.18-5.577-2.37-5.566-6.633   c0.009-3.646,1.384-6.183,5.358-6.389C241.652,185.134,243.699,187.673,243.681,191.962z"
   id="path10" />
</g>
</svg>
