<?xml version="1.0" encoding="UTF-8" standalone="no"?>
<!-- Generator: Adobe Illustrator 25.0.0, SVG Export Plug-In . SVG Version: 6.00 Build 0)  -->

<svg
   version="1.1"
   id="Calque_1"
   x="0px"
   y="0px"
   viewBox="0 0 500 500"
   style="enable-background:new 0 0 500 500;"
   xml:space="preserve"
   sodipodi:docname="5.svgz"
   xmlns:inkscape="http://www.inkscape.org/namespaces/inkscape"
   xmlns:sodipodi="http://sodipodi.sourceforge.net/DTD/sodipodi-0.dtd"
   xmlns="http://www.w3.org/2000/svg"
   xmlns:svg="http://www.w3.org/2000/svg"><defs
   id="defs49" /><sodipodi:namedview
   id="namedview47"
   pagecolor="#ffffff"
   bordercolor="#000000"
   borderopacity="0.25"
   inkscape:showpageshadow="2"
   inkscape:pageopacity="0.0"
   inkscape:pagecheckerboard="0"
   inkscape:deskcolor="#d1d1d1" />
<g
   id="g2">
</g>
<g
   id="g4">
</g>
<g
   id="g6">
</g>
<g
   id="g8">
</g>
<g
   id="g12">
	<path
   style="fill:#1C1C1B;"
   d="M461.191,466.676H278.813l-0.148-1.335l-22.529-203.622L225.9,466.676H38.771l0.24-1.708   L99.503,33.324h310.545L461.191,466.676z M281.499,463.676h176.317L407.382,36.324h-305.27L42.221,463.676h181.089l33.251-225.395   L281.499,463.676z"
   id="path10" />
</g>
<g
   id="g16">
	<path
   style="fill:none;stroke:#1C1C1B;stroke-width:3;stroke-miterlimit:10;"
   d="M417.491,109.181"
   id="path14" />
</g>
<g
   id="g20">
	<path
   style="fill:none;stroke:#1C1C1B;stroke-width:3;stroke-miterlimit:10;"
   d="M202.385,130.287"
   id="path18" />
</g>
<g
   id="g24">
	<path
   d="M287.516,220.13c-0.778-0.929-19.021-23.007-16.302-45.956c1.245-10.517,6.739-19.489,16.332-26.672   c1.284-2.077,11.248-19.062,5.252-36.489c-4.732-13.753-18.032-24.412-39.531-31.682l0.961-2.842   c22.439,7.588,36.374,18.884,41.417,33.575c6.837,19.919-5.211,38.519-5.728,39.301l-0.146,0.221l-0.213,0.158   c-9.037,6.697-14.206,15.031-15.363,24.771c-2.573,21.652,15.438,43.471,15.621,43.689L287.516,220.13z"
   id="path22" />
</g>
<g
   id="g28">
	<path
   d="M222.022,220.13l-2.3-1.926c0.183-0.218,18.194-22.037,15.621-43.689c-1.157-9.74-6.326-18.074-15.364-24.771l-0.213-0.158   l-0.146-0.221c-0.516-0.782-12.564-19.381-5.727-39.301c5.042-14.691,18.977-25.987,41.416-33.575l0.961,2.842   c-21.499,7.27-34.799,17.929-39.531,31.682c-5.996,17.425,3.967,34.411,5.252,36.489c9.593,7.183,15.086,16.155,16.332,26.672   C241.042,197.123,222.8,219.202,222.022,220.13z"
   id="path26" />
</g>
<g
   id="g32">
	<rect
   x="90.387"
   y="107.681"
   width="328.69"
   height="3"
   id="rect30" />
</g>
<g
   id="g34">
</g>
<g
   id="g36">
</g>
<g
   id="g38">
</g>
<g
   id="g40">
</g>
<g
   id="g42">
</g>
<g
   id="g44">
</g>
</svg>
