<?xml version="1.0" encoding="UTF-8" standalone="no"?>
<!-- Generator: Adobe Illustrator 25.0.0, SVG Export Plug-In . SVG Version: 6.00 Build 0)  -->

<svg
   version="1.1"
   id="Calque_1"
   x="0px"
   y="0px"
   viewBox="0 0 500 500"
   style="enable-background:new 0 0 500 500;"
   xml:space="preserve"
   sodipodi:docname="3.svgz"
   xmlns:inkscape="http://www.inkscape.org/namespaces/inkscape"
   xmlns:sodipodi="http://sodipodi.sourceforge.net/DTD/sodipodi-0.dtd"
   xmlns="http://www.w3.org/2000/svg"
   xmlns:svg="http://www.w3.org/2000/svg"><defs
   id="defs29" /><sodipodi:namedview
   id="namedview27"
   pagecolor="#ffffff"
   bordercolor="#000000"
   borderopacity="0.25"
   inkscape:showpageshadow="2"
   inkscape:pageopacity="0.0"
   inkscape:pagecheckerboard="0"
   inkscape:deskcolor="#d1d1d1" />
<line
   style="fill:none;stroke:#1C1C1B;stroke-width:4;stroke-miterlimit:10;"
   x1="21.897"
   y1="478.878"
   x2="418.981"
   y2="478.878"
   id="line2" />
<path
   style="fill:none;stroke:#1C1C1B;stroke-width:4;stroke-miterlimit:10;"
   d="M391.117,186.319  c41.413,0,74.986,33.572,74.986,74.986s-33.573,74.986-74.986,74.986c-3.86,0-7.653-0.292-11.356-0.854"
   id="path4" />
<path
   style="fill:none;stroke:#1C1C1B;stroke-width:4;stroke-miterlimit:10;"
   d="M213.878,458.427L213.878,458.427  c-98.828,0-178.943-80.116-178.943-178.943v-91.629c0-1.162,0.942-2.103,2.103-2.103h353.68c1.161,0,2.103,0.942,2.103,2.103v91.629  C392.822,378.311,312.706,458.427,213.878,458.427z"
   id="path6" />
<path
   style="fill:none;stroke:#1C1C1B;stroke-width:4;stroke-miterlimit:10;"
   d="M159.385,129.512l6.031-15.036  c3.919-9.769,3.92-20.349,0.004-30.119l0,0c-3.915-9.766-3.915-20.343,0-30.11l6.037-15.06"
   id="path8" />
<path
   style="fill:none;stroke:#1C1C1B;stroke-width:4;stroke-miterlimit:10;"
   d="M214.772,129.512l6.031-17.873  c3.919-11.612,3.92-24.189,0.004-35.801l0,0c-3.914-11.609-3.914-24.182,0-35.791l6.037-17.902"
   id="path10" />
<path
   style="fill:none;stroke:#1C1C1B;stroke-width:4;stroke-miterlimit:10;"
   d="M266.695,129.512l6.031-15.036  c3.919-9.769,3.92-20.349,0.004-30.119l0,0c-3.915-9.766-3.915-20.343,0-30.11l6.037-15.06"
   id="path12" />
<g
   id="g14">
</g>
<g
   id="g16">
</g>
<g
   id="g18">
</g>
<g
   id="g20">
</g>
<g
   id="g22">
</g>
<g
   id="g24">
</g>
</svg>
