<?xml version="1.0" encoding="UTF-8" standalone="no"?>
<!-- Generator: Adobe Illustrator 25.0.0, SVG Export Plug-In . SVG Version: 6.00 Build 0)  -->

<svg
   version="1.1"
   id="Calque_1"
   x="0px"
   y="0px"
   viewBox="0 0 500 500"
   style="enable-background:new 0 0 500 500;"
   xml:space="preserve"
   sodipodi:docname="14_Plan de travail 1.svgz"
   xmlns:inkscape="http://www.inkscape.org/namespaces/inkscape"
   xmlns:sodipodi="http://sodipodi.sourceforge.net/DTD/sodipodi-0.dtd"
   xmlns="http://www.w3.org/2000/svg"
   xmlns:svg="http://www.w3.org/2000/svg"><defs
   id="defs7" /><sodipodi:namedview
   id="namedview5"
   pagecolor="#ffffff"
   bordercolor="#000000"
   borderopacity="0.25"
   inkscape:showpageshadow="2"
   inkscape:pageopacity="0.0"
   inkscape:pagecheckerboard="0"
   inkscape:deskcolor="#d1d1d1" />
<path
   d="M33.885,353.178c0.791-6.835,1.45-13.688,2.404-20.5c1.269-9.061,2.688-18.103,4.196-27.127  c0.914-5.472,2.59-6.924,8.13-7.18c21.118-0.976,42.233-2.059,63.361-2.752c18.03-0.591,36.076-0.697,54.115-1.029  c1.515-0.028,3.029-0.136,4.584-0.209c0-6.556-0.009-12.731,0.001-18.906c0.059-36.082,0.062-72.164,0.328-108.245  c0.017-2.277,1.483-5.58,3.305-6.647c19.774-11.583,30.645-29.771,38.171-50.493c7.275-20.033,10.426-40.88,11.7-62.05  c0.516-8.565,1.706-9.837,10.3-10.415c10.966-0.737,21.918-1.691,32.886-2.391c6.489-0.414,8.698,1.824,8.647,8.324  c-0.15,18.92,1.936,37.542,10.13,54.782c3.447,7.253,8.064,14.334,13.575,20.141c11.525,12.143,26.048,11.722,37.984-0.163  c10.547-10.502,16.403-23.68,19.123-37.936c2.284-11.968,3.065-24.253,3.985-36.438c0.525-6.96,2.194-9.153,9.223-8.697  c11.671,0.759,23.334,1.64,34.995,2.546c5.572,0.433,7.33,2.566,7.673,9.015c1.12,21.045,4.117,41.768,11.171,61.715  c2.199,6.218,5.068,12.205,7.757,18.242c1.962,4.405,1.152,8.101-2.373,9.748c-3.395,1.587-6.749,0.148-8.908-3.986  c-9.569-18.319-14.718-37.997-17.655-58.315c-1.127-7.795-1.843-15.648-2.822-24.13c-8.488-0.622-17.092-1.252-25.742-1.886  c-0.95,8.685-1.486,16.97-2.825,25.123c-2.886,17.571-8.49,34.15-19.614,48.414c-4.826,6.187-10.634,11.281-17.78,14.666  c-13.978,6.62-29.387,3.9-41.822-7.398c-11.198-10.175-17.587-23.246-22.132-37.363c-4.085-12.69-5.918-25.776-6.537-39.057  c-0.059-1.254-0.166-2.506-0.291-4.366c-8.762,0.616-17.369,1.222-25.785,1.814c-1.596,11.533-2.76,22.598-4.717,33.52  c-3.879,21.653-10.602,42.306-23.07,60.74c-6.307,9.326-14.016,17.235-23.245,23.722c-1.35,0.949-2.738,2.998-2.741,4.54  c-0.074,39.887,0.032,79.775,0.118,119.662c0.001,0.551,0.144,1.101,0.322,2.386c2.733,0,5.502-0.075,8.266,0.011  c39.019,1.225,78.038,2.452,117.055,3.733c6.219,0.204,7.986,1.715,8.801,7.934c2.176,16.607,4.223,33.231,6.202,49.863  c0.85,7.139-1.454,9.636-8.614,9.606c-25.191-0.107-48.504,6.318-69.403,20.493c-6.573,4.458-12.462,9.926-18.354,15.581  c73.352,7.786,146.192,6.275,219.264-3.8c0.613-7.533,1.306-14.92,1.8-22.32c4.301-64.449,6.218-128.951,4.844-193.551  c-0.175-8.241-1.005-14.886-9.252-18.988c-3.137-1.56-5.51-4.773-8.028-7.425c-2.675-2.818-2.635-6.665-0.189-9.093  c2.456-2.439,6.102-2.255,9.133,0.197c5.676,4.589,11.597,8.888,17.096,13.675c1.697,1.477,3.337,4.147,3.341,6.274  c0.072,43.551,0.449,87.112-0.41,130.649c-0.577,29.29-2.941,58.546-4.572,87.813c-0.337,6.048-0.996,12.077-1.452,18.119  c-0.301,3.989-2.397,6.184-6.353,6.576c-28.17,2.79-56.297,6.193-84.524,8.186c-32.776,2.315-65.647,2.092-98.466,0.169  c-16.314-0.956-32.606-2.325-48.888-3.73c-2.554-0.22-3.769,0.471-5.017,2.548c-7.326,12.189-11.489,25.327-12.28,39.528  c-0.349,6.273-2.293,8.133-8.673,8.145c-10.854,0.019-21.709,0.028-32.563-0.004c-5.861-0.017-7.884-1.762-8.283-7.689  c-2.089-31.061-17.777-53.92-42.738-71.236c-0.81-0.562-1.665-1.064-2.444-1.666c-3.142-2.43-3.926-5.939-2.02-8.883  c1.918-2.962,5.593-3.835,8.92-1.67c26.068,16.964,43.732,39.851,49.623,70.943c0.443,2.338,0.74,4.705,1.142,7.297  c8.027,0,16.014,0,24.515,0c3.339-29.543,17.647-53.158,40.973-71.348c22.969-17.911,49.451-26.315,79.365-27.612  c-1.766-14.1-3.5-27.954-5.259-42.001c-84.966-4.99-169.314-5.007-254.618,0.042c-1.758,13.831-3.517,27.674-5.24,41.231  c10.03,1.537,19.229,2.671,28.305,4.439c5.493,1.07,10.847,2.971,16.168,4.781c4.227,1.438,5.824,4.578,4.62,8.124  c-1.211,3.566-4.491,5.263-8.582,3.798c-15.028-5.382-30.478-7.8-46.431-7.787c-2.301,0.002-4.603-2.55-6.905-3.921  C33.885,358.817,33.885,355.997,33.885,353.178z"
   id="path2" />
</svg>
