<?xml version="1.0" encoding="UTF-8" standalone="no"?>
<!-- Generator: Adobe Illustrator 25.0.0, SVG Export Plug-In . SVG Version: 6.00 Build 0)  -->

<svg
   version="1.1"
   id="Calque_1"
   x="0px"
   y="0px"
   viewBox="0 0 500 500"
   style="enable-background:new 0 0 500 500;"
   xml:space="preserve"
   sodipodi:docname="18_Plan de travail 1.svgz"
   xmlns:inkscape="http://www.inkscape.org/namespaces/inkscape"
   xmlns:sodipodi="http://sodipodi.sourceforge.net/DTD/sodipodi-0.dtd"
   xmlns="http://www.w3.org/2000/svg"
   xmlns:svg="http://www.w3.org/2000/svg"><defs
   id="defs49" /><sodipodi:namedview
   id="namedview47"
   pagecolor="#ffffff"
   bordercolor="#000000"
   borderopacity="0.25"
   inkscape:showpageshadow="2"
   inkscape:pageopacity="0.0"
   inkscape:pagecheckerboard="0"
   inkscape:deskcolor="#d1d1d1" />
<g
   id="g4">
	<path
   d="M466.903,207.666c-2.211,6.127-6.811,9.279-12.934,10.906c-5.852,1.555-11.546,3.696-17.388,5.292   c-2.811,0.768-3.686,2.125-3.709,5.016c-0.055,6.628-0.509,13.255-0.89,19.877c-0.443,7.706-3.763,12.323-9.966,14.061   c-6.126,1.716-11.04-0.359-15.508-6.587c-3.948-5.503-7.95-10.97-11.76-16.568c-1.393-2.047-2.694-2.698-5.219-1.947   c-7.155,2.128-14.385,4.015-21.63,5.821c-5.893,1.469-11.283-0.637-14.467-5.351c-3.28-4.857-3.282-10.323,0.326-15.421   c4.156-5.873,8.412-11.685,12.853-17.343c1.827-2.328,2.132-4.023,0.306-6.584c-4.01-5.623-7.685-11.488-11.412-17.309   c-3.755-5.865-3.726-11.316-0.059-16.157c3.745-4.944,9.25-6.49,15.94-4.314c8.711,2.833,17.402,5.73,26.076,8.674   c4.759,1.615,6.674,4.793,5.33,8.523c-1.393,3.864-4.548,5.084-9.451,3.479c-7.632-2.498-15.232-5.096-22.852-7.632   c-1.433-0.477-2.895-0.863-5.231-1.553c0.955,1.788,1.429,2.855,2.057,3.823c4.532,6.98,8.987,14.015,13.693,20.877   c2.523,3.679,2.489,6.848-0.246,10.39c-5,6.477-9.776,13.127-14.629,19.717c-0.79,1.073-1.496,2.209-2.925,4.334   c10.018-2.694,18.814-5.05,27.603-7.427c6.347-1.717,7.568-1.301,11.378,4.037c4.508,6.316,9,12.644,13.519,18.953   c0.779,1.087,1.657,2.104,3.269,4.136c0.433-7.482,0.819-13.752,1.148-20.026c0.17-3.242,0.298-6.488,0.338-9.733   c0.053-4.264,2.148-6.717,6.213-7.933c7.964-2.384,15.868-4.966,23.793-7.477c1.19-0.377,2.359-0.819,4.73-1.647   c-4.009-1.534-6.972-2.666-9.933-3.803c-5.657-2.172-11.317-4.338-16.97-6.522c-6.109-2.36-6.754-3.347-6.676-10.041   c0.088-7.622,0.173-15.244,0.253-22.866c0.014-1.368,0.002-2.736,0.002-5.082c-1.634,1.456-2.563,2.35-3.561,3.159   c-2.667,2.163-5.483,2.265-8.095,0.069c-2.596-2.182-3.036-4.981-1.426-7.997c2.994-5.61,9.296-8.574,15.358-7.268   c6.021,1.297,10.288,6.528,10.399,13.245c0.117,7.055,0.156,14.128-0.235,21.167c-0.195,3.512,1.078,5.007,4.225,6.046   c5.213,1.722,10.207,4.123,15.446,5.744c5.809,1.797,10.299,4.896,12.919,10.469C466.903,203.148,466.903,205.407,466.903,207.666z   "
   id="path2" />
</g>
<g
   id="g8">
	<path
   d="M194.111,33.176c0.107,0.092,0.203,0.243,0.324,0.266c18.891,3.703,31.431,20.707,25.293,44.867   c-4.2,16.533-12.241,31.165-22.102,44.847c-1.279,1.774-4.621,3.28-6.773,3.015c-17.595-2.165-34.725-6.228-50.121-15.474   c-12.026-7.223-19.571-17.297-18.775-32.153c0.961-17.949,17.536-31.884,35.361-29.499c2.836,0.379,4.582-0.068,6.234-2.642   c4.758-7.413,12.326-10.768,20.394-13.228C187.333,33.176,190.722,33.176,194.111,33.176z M208.511,70.607   c0.103-14.544-5.742-22.212-15.481-24.35c-8.53-1.872-17.45,2.722-21.243,10.941c-3.298,7.145-4.441,7.642-12.002,5.211   c-12.591-4.048-25.144,5.122-25.185,18.326c-0.025,8.074,4.351,13.536,10.599,17.715c12.72,8.509,27.24,11.99,42.069,14.382   c1.058,0.171,2.889-0.973,3.492-2.01c4.032-6.94,8.393-13.776,11.543-21.119C205.431,82.411,207.263,74.563,208.511,70.607z"
   id="path6" />
</g>
<g
   id="g12">
	<path
   d="M239.994,201.71c11.151,0,22.308-0.238,33.452,0.049c24.286,0.624,45.155,21.339,45.971,45.635   c0.332,9.869,0.429,19.776-0.112,29.625c-0.183,3.335-2.103,6.995-4.268,9.665c-1.642,2.026-2.566,3.67-2.48,6.196   c0.422,12.425-1.249,24.472-6.677,35.823c-4.515,9.443-10.893,17.389-18.782,24.248c-1.351,1.175-2.358,3.407-2.471,5.217   c-0.327,5.201-0.162,10.437-0.102,15.659c0.098,8.598,3.543,13.161,11.808,15.909c16.036,5.333,32.089,10.616,48.084,16.068   c15.48,5.276,24.162,17.575,24.221,33.975c0.023,6.492,0.043,12.985-0.01,19.477c-0.038,4.639-2.414,7.473-6.18,7.567   c-3.915,0.097-6.462-2.851-6.498-7.689c-0.051-6.774,0.039-13.549-0.031-20.323c-0.1-9.67-5.482-17.483-14.641-20.665   c-13.31-4.624-26.753-8.867-40.055-13.512c-2.934-1.024-3.76,0.842-5.066,2.382c-23.449,27.643-63.73,32.919-93.151,11.914   c-4.998-3.569-9.281-8.196-13.618-12.606c-1.582-1.609-2.614-2.309-4.954-1.504c-13.054,4.49-26.213,8.674-39.276,13.139   c-9.532,3.258-14.904,10.886-15.117,21.232c-0.137,6.631,0.013,13.267-0.054,19.899c-0.049,4.908-2.536,7.821-6.418,7.732   c-3.756-0.086-6.179-2.879-6.237-7.566c-0.088-7.055-0.225-14.121,0.05-21.168c0.607-15.58,9.418-27.275,24.207-32.293   c15.88-5.388,31.808-10.633,47.707-15.962c8.942-2.997,11.864-7.621,12.443-16.861c0.681-10.867-1.012-19.531-10.04-27.752   c-12.61-11.483-17.781-27.46-18.087-44.682c-0.058-3.245-0.168-6.498-0.017-9.736c0.225-4.827,0.218-9.209-4.22-12.802   c-1.838-1.488-2.734-5.04-2.784-7.678c-0.202-10.574-0.512-21.206,0.338-31.726c1.657-20.496,19.069-36.456,39.612-36.879   c11.147-0.23,22.302-0.041,33.453-0.041C239.993,201.688,239.994,201.699,239.994,201.71z M306.774,277.789   c0-10.144,0.174-19.578-0.037-29.003c-0.419-18.697-15.747-34.116-34.515-34.349c-21.733-0.271-43.474-0.194-65.209-0.018   c-12.848,0.104-24.763,9.061-26.717,21.732c-1.718,11.139-1.128,22.633-1.557,33.97c0.428,0.162,0.856,0.324,1.285,0.485   c1.047-0.796,2.127-1.555,3.137-2.395c8.786-7.31,17.585-14.606,26.322-21.974c2.719-2.293,5.585-3.501,8.86-1.505   c14.98,9.133,30.842,16.36,47.238,22.546c1.972,0.744,4.069,3.295,4.567,5.377c1.135,4.743-3.946,8.449-8.871,6.299   c-14.314-6.249-28.508-12.78-42.636-19.44c-2.391-1.127-3.825-1.252-5.884,0.512c-8.144,6.974-16.494,13.708-24.647,20.673   c-0.988,0.844-1.717,2.538-1.749,3.858c-0.147,6.063-0.195,12.142,0.067,18.2c1.224,28.266,25.588,52.201,53.933,53.11   c33.615,1.079,59.449-24.447,59.521-58.81c0.016-7.526,0.016-7.526-7.144-9.002c-5.099-1.051-7.683-4.061-6.794-7.916   c0.916-3.974,4.191-5.575,9.421-4.578C298.95,276.244,302.53,276.958,306.774,277.789z M200.197,399.098   c22.229,27.259,65.431,25.63,85.515-0.058c-6.187-3.638-11.053-8.752-12.529-15.74c-1.396-6.609-1.365-13.52-1.987-20.594   c-18.841,7.906-37.619,7.885-57.089-0.306C215.256,377.199,214.433,390.891,200.197,399.098z"
   id="path10" />
</g>
<g
   id="g16">
	<path
   d="M74.346,249.275c-11.146,0-22.291,0.029-33.437-0.013c-5.504-0.021-7.733-2.211-7.748-7.658   c-0.04-15.375-0.18-30.755,0.15-46.123c0.055-2.547,1.648-5.797,3.606-7.446c10.568-8.901,21.465-17.413,32.271-26.031   c4.352-3.471,6.472-3.476,10.861,0.02c10.699,8.525,21.325,17.142,32.071,25.606c2.798,2.204,4.031,4.774,4.006,8.334   c-0.103,14.952-0.026,29.904-0.052,44.857c-0.011,6.339-2.075,8.432-8.293,8.447C96.637,249.295,85.491,249.276,74.346,249.275z    M103.373,236.38c0-12.896,0.053-25.282-0.088-37.667c-0.013-1.147-1.007-2.586-1.969-3.371   c-8.076-6.593-16.289-13.019-24.366-19.61c-1.768-1.443-2.994-1.421-4.724,0.028c-4.751,3.981-9.659,7.773-14.477,11.675   c-3.936,3.188-9.341,5.704-11.32,9.844c-1.982,4.147-0.553,9.937-0.568,15.007c-0.024,7.985-0.006,15.97-0.006,24.093   C65.193,236.38,84.022,236.38,103.373,236.38z"
   id="path14" />
</g>
<g
   id="g20">
	<path
   d="M338.983,72.179c-3.416,6.747-6.73,13.076-9.758,19.538c-0.389,0.83,0.386,2.629,1.156,3.515   c9.099,10.472,10.882,20.032,5.463,30.118c-5.709,10.629-16.972,15.906-30.393,14.048c-2.821,3.843-4.169,10.823-11.586,7.247   c-3.62-1.745-3.64-4.826-0.937-11.714c-3.838-4.459-7.731-8.487-11.022-12.958c-2.865-3.89-2.031-7.895,1.328-9.934   c3.224-1.957,6.504-0.783,9.303,3.086c1.849,2.556,3.94,4.937,6.481,8.089c4.846-9.624,9.238-18.237,13.461-26.931   c0.348-0.716-0.259-2.099-0.76-2.98c-0.901-1.587-2.089-3.009-3.102-4.537c-5.017-7.564-5.403-15.362-0.551-23.051   c4.991-7.909,12.313-11.913,21.76-11.147c2.623,0.213,4-0.145,5.174-2.688c1.956-4.238,5.492-5.606,8.891-4.018   c3.433,1.604,4.334,5.422,2.316,9.846c-0.347,0.76-0.723,1.506-1.116,2.322c1.96,2.258,4.007,4.376,5.773,6.706   c2.785,3.676,2.52,7.437-0.459,9.75c-3.09,2.399-6.396,1.695-9.487-2.019C340.402,73.847,339.877,73.235,338.983,72.179z    M311.412,126.934c6.545-0.089,11.785-3.613,13.784-8.826c1.781-4.645,0.853-8.579-3.126-12.346   C318.563,112.728,315.105,119.597,311.412,126.934z M319.919,81.662c2.382-4.761,4.689-9.373,7.152-14.296   C318.593,68.946,315.11,75.992,319.919,81.662z"
   id="path18" />
</g>
<g
   id="g24">
	<path
   d="M123.174,137.587c2.256,1.318,4.192,1.992,5.51,3.291c11.358,11.193,22.631,22.473,33.868,33.789   c3.316,3.34,3.449,6.935,0.636,9.681c-2.786,2.719-6.344,2.489-9.708-0.855c-11.21-11.142-22.356-22.35-33.549-33.509   c-2.194-2.188-3.482-4.822-1.906-7.589C119.086,140.529,121.269,139.301,123.174,137.587z"
   id="path22" />
</g>
<g
   id="g28">
	<path
   d="M375.508,297.803c0.173,6.163-5,9.375-9.463,6.615c-7.311-4.52-14.421-9.378-21.473-14.298   c-2.964-2.068-3.455-5.919-1.424-8.616c2.163-2.873,5.145-3.752,8.194-1.821c7.384,4.675,14.657,9.534,21.818,14.542   C374.488,295.154,375.085,297.127,375.508,297.803z"
   id="path26" />
</g>
<g
   id="g32">
	<path
   d="M249.265,155.346c-0.002,3.528,0.103,7.061-0.031,10.584c-0.138,3.623-2.203,5.734-5.773,6.13   c-3.406,0.378-6.548-1.972-6.687-5.615c-0.284-7.466-0.309-14.961,0.031-22.423c0.16-3.502,2.782-5.496,6.356-5.57   c3.357-0.07,5.918,2.601,6.073,6.31C249.383,148.284,249.267,151.817,249.265,155.346z"
   id="path30" />
</g>
<g
   id="g36">
	<path
   d="M122.9,291.947c-1.513-1.254-3.858-2.317-4.606-4.063c-0.753-1.757-0.76-4.941,0.363-6.206   c4.936-5.557,10.219-10.846,15.754-15.812c2.465-2.211,5.657-1.492,7.954,0.986c2.163,2.334,2.658,5.354,0.511,7.683   c-5.046,5.471-10.426,10.64-15.792,15.805C126.262,291.13,124.795,291.25,122.9,291.947z"
   id="path34" />
</g>
<g
   id="g40">
	<path
   d="M320.96,166.093c1.413,1.109,3.87,2.112,4.551,3.821c0.756,1.896,0.68,4.992-0.436,6.582   c-2.222,3.166-5.228,5.871-8.241,8.367c-2.592,2.147-5.605,1.801-8.025-0.548c-2.259-2.193-2.979-5.139-0.947-7.623   c2.738-3.348,5.994-6.288,9.174-9.246C317.775,166.758,319.103,166.702,320.96,166.093z"
   id="path38" />
</g>
<g
   id="g44">
	<path
   d="M80.829,211.743c0,1.125,0.09,2.258-0.016,3.372c-0.356,3.733-2.823,6.189-6.236,6.081c-3.62-0.115-5.8-2.148-6.196-5.675   c-0.296-2.636-0.292-5.35-0.038-7.993c0.365-3.779,2.952-5.959,6.448-5.856c3.499,0.104,5.728,2.383,6.039,6.275   c0.1,1.257,0.016,2.529,0.016,3.795C80.84,211.743,80.835,211.743,80.829,211.743z"
   id="path42" />
</g>
</svg>
