<?xml version="1.0" encoding="UTF-8" standalone="no"?>
<!-- Generator: Adobe Illustrator 25.0.0, SVG Export Plug-In . SVG Version: 6.00 Build 0)  -->

<svg
   version="1.1"
   id="Calque_1"
   x="0px"
   y="0px"
   viewBox="0 0 500 500"
   style="enable-background:new 0 0 500 500;"
   xml:space="preserve"
   sodipodi:docname="8.svgz"
   xmlns:inkscape="http://www.inkscape.org/namespaces/inkscape"
   xmlns:sodipodi="http://sodipodi.sourceforge.net/DTD/sodipodi-0.dtd"
   xmlns="http://www.w3.org/2000/svg"
   xmlns:svg="http://www.w3.org/2000/svg"><defs
   id="defs21" /><sodipodi:namedview
   id="namedview19"
   pagecolor="#ffffff"
   bordercolor="#000000"
   borderopacity="0.25"
   inkscape:showpageshadow="2"
   inkscape:pageopacity="0.0"
   inkscape:pagecheckerboard="0"
   inkscape:deskcolor="#d1d1d1" />
<path
   style="fill:#13110C;"
   d="M453.683,369.87c-5.737-5.737-13.351-8.9-21.47-8.9h-0.713c-7.736,0-14.603,3.824-18.81,9.682  l-45.199-45.199l-9.196-68.981c-4.051-30.405-30.249-53.335-60.949-53.335c-8.431,0-15.281,6.867-15.281,15.298v15.785  c0,17.662-14.377,32.057-32.057,32.057c-17.68,0-32.074-14.394-32.074-32.057v-15.785c0-8.431-6.85-15.298-15.298-15.298  c-30.683,0-56.864,22.93-60.915,53.335l-9.196,68.981l-45.199,45.182c-0.73-1.008-1.547-1.982-2.434-2.868  c-4.381-4.381-10.205-6.797-16.394-6.797h-0.017c-17.124,0-31.066,13.942-31.066,31.083c0,16.811,13.438,30.545,30.144,31.049  c-4.068,5.719-6.467,12.708-6.467,20.235c0,19.314,15.715,35.03,35.029,35.03h307.772c19.314,0,35.012-15.715,35.012-35.03  c0-7.527-2.399-14.516-6.467-20.235c16.706-0.487,30.145-14.272,30.145-31.171v-0.591  C462.584,383.222,459.42,375.608,453.683,369.87 M313.948,341.986l2.556-21.695l2.347,11.804  c2.138,10.621,7.301,20.304,14.985,27.971l48.241,48.259h-55.265l-11.578-46.312C313.583,355.441,313.148,348.696,313.948,341.986   M202.654,217.932c0.278,0,0.487,0.226,0.487,0.504v15.785c0,25.832,21.035,46.851,46.868,46.851  c25.833,0,46.851-21.018,46.851-46.851v-15.785c0-0.278,0.226-0.504,0.522-0.504c5.563,0,10.935,1.008,15.924,2.834l-14.064,119.482  c-0.991,8.501-0.452,17.036,1.634,25.346l10.674,42.731H188.451l10.691-42.731c2.069-8.31,2.625-16.845,1.617-25.346  l-14.046-119.482C191.702,218.94,197.073,217.932,202.654,217.932 M183.514,320.291l2.556,21.678  c0.782,6.727,0.348,13.472-1.287,20.044l-11.578,46.312h-55.282l48.259-48.259c7.666-7.667,12.847-17.332,14.968-27.971  L183.514,320.291z M68.499,408.325c-8.97,0-16.272-7.302-16.272-16.272s7.284-16.271,16.272-16.289c2.243,0,4.346,0.887,5.928,2.469  s2.451,3.685,2.451,5.928c0,2.99,1.808,5.684,4.572,6.832c2.764,1.147,5.946,0.504,8.066-1.6l55.23-55.247  c1.147-1.147,1.895-2.642,2.104-4.259l9.527-71.449c1.599-11.926,7.666-22.321,16.376-29.606l5.181,43.948l-11.282,56.412  c-1.565,7.753-5.337,14.811-10.935,20.408l-58.724,58.725h-0.869H68.499z M218.925,463.572H96.123  c-11.161,0-20.235-9.074-20.235-20.235c0-11.143,9.075-20.218,20.235-20.218h51.788v3.616c0,10.952,7.458,20.253,18.149,22.634  l52.866,11.752V463.572z M218.925,445.962l-49.65-11.039c-3.877-0.852-6.571-4.224-6.571-8.188v-3.616h56.221V445.962z   M403.894,463.572H233.719v-40.454h170.175c11.143,0,20.218,9.075,20.218,20.235C424.112,454.498,415.038,463.572,403.894,463.572   M447.79,391.931c0,9.04-7.302,16.394-16.255,16.394h-28.527L344.284,349.6c-5.58-5.597-9.37-12.655-10.917-20.408l-11.282-56.412  l5.163-43.948c8.709,7.284,14.794,17.679,16.376,29.606l9.527,71.449c0.226,1.617,0.956,3.112,2.103,4.259l55.247,55.247  c2.121,2.104,5.302,2.747,8.066,1.6c2.764-1.148,4.555-3.842,4.555-6.832c0-4.624,3.772-8.379,8.397-8.397h0.695h0.018  c4.155,0,8.066,1.634,11.004,4.572c2.938,2.938,4.555,6.85,4.555,11.004V391.931z"
   id="path2" />
<path
   style="fill:#13110C;"
   d="M280.207,60c0.574-2.364,0.869-4.815,0.869-7.301c0-17.123-13.942-31.066-31.066-31.066  c-17.141,0-31.083,13.942-31.083,31.066c0,2.486,0.296,4.937,0.869,7.301c-23.817,11.335-40.332,35.639-40.332,63.731v7.249  c0,4.068,3.286,7.371,7.354,7.406c0.487,0,3.529,0,8.431-0.33v9.352c0,30.18,24.564,54.743,54.76,54.743  c30.179,0,54.743-24.563,54.743-54.743v-9.213c2.677,0.521,5.476,0.834,8.379,0.834c4.085,0,7.406-3.32,7.406-7.405v-7.893  C320.539,95.639,304.024,71.352,280.207,60 M250.01,36.428c8.97,0,16.272,7.301,16.272,16.271c0,0.8-0.069,1.599-0.191,2.364  c-5.163-1.199-10.552-1.86-16.081-1.86c-5.546,0-10.917,0.661-16.098,1.86c-0.104-0.765-0.191-1.564-0.191-2.364  C233.721,43.729,241.023,36.428,250.01,36.428 M289.96,147.409c0,22.026-17.923,39.95-39.949,39.95  c-22.043,0-39.949-17.923-39.949-39.95v-10.847c16.619-2.295,39.81-7.441,61.714-19.071c3.79,4.381,10.013,10.535,18.184,15.142  V147.409z M279.825,103.826c-2.191-3.25-6.537-4.241-9.909-2.242c-28.232,16.671-61.228,20.704-75.639,21.678  c0.243-30.51,25.155-55.265,55.734-55.265c30.562,0,55.474,24.738,55.734,55.247C290.359,119.211,279.946,104,279.825,103.826"
   id="path4" />
<g
   id="g6">
</g>
<g
   id="g8">
</g>
<g
   id="g10">
</g>
<g
   id="g12">
</g>
<g
   id="g14">
</g>
<g
   id="g16">
</g>
</svg>
